mtllib ladder_2_f35_ext_1_0.mtl
o ladder_2_f35_ext_1_0
v 2.3574886322021484 2.549643039703369 0.00006289999873843044 
v 2.3574886322021484 2.549643039703369 -3.4000699520111084 
v -2.7425899505615234 2.549643039703369 0.00006289999873843044 
v -2.7425899505615234 2.549643039703369 -3.4000699520111084 
v 2.3574886322021484 -2.5347259044647217 -3.4000699520111084 
v 2.3574886322021484 2.549643039703369 -3.4000699520111084 
v 2.3574886322021484 -2.5347259044647217 0.00006289999873843044 
v 2.3574886322021484 2.549643039703369 0.00006289999873843044 
v -1.1362659931182861 -13.19950008392334 -1.1243904829025269 
v -1.1362659931182861 -3.6508069038391113 -2.0346622467041016 
v 0.7511646747589111 -13.19950008392334 -1.1243904829025269 
v 0.7511646747589111 -3.6508069038391113 -2.0346622467041016 
v -2.7425899505615234 -2.5347259044647217 -3.4000699520111084 
v 2.3574886322021484 -2.5347259044647217 -3.4000699520111084 
v -2.7425899505615234 2.549643039703369 -3.4000699520111084 
v 2.3574886322021484 2.549643039703369 -3.4000699520111084 
v 0.7511646747589111 -13.19950008392334 0.00006289999873843044 
v -1.1362659931182861 -13.19950008392334 0.00006289999873843044 
v 0.7511646747589111 -13.19950008392334 -1.1243904829025269 
v -1.1362659931182861 -13.19950008392334 -1.1243904829025269 
v -1.1362659931182861 -13.19950008392334 0.00006289999873843044 
v 0.7511646747589111 -13.19950008392334 0.00006289999873843044 
v -1.1362659931182861 -3.6508069038391113 0.00006289999873843044 
v 0.7511646747589111 -3.6508069038391113 0.00006289999873843044 
v -2.7425899505615234 -2.5347259044647217 0.00006289999873843044 
v 2.3574886322021484 -2.5347259044647217 0.00006289999873843044 
v -2.7425899505615234 2.549643039703369 0.00006289999873843044 
v 2.3574886322021484 2.549643039703369 0.00006289999873843044 
v -2.7425899505615234 -2.5347259044647217 -3.4000699520111084 
v -1.1362659931182861 -3.6508069038391113 -2.0346622467041016 
v -2.7425899505615234 -2.5347259044647217 0.00006289999873843044 
v -1.1362659931182861 -3.6508069038391113 0.00006289999873843044 
v -1.1362659931182861 -13.19950008392334 -1.1243904829025269 
v -1.1362659931182861 -13.19950008392334 0.00006289999873843044 
v 0.7511646747589111 -13.19950008392334 -1.1243904829025269 
v 0.7511646747589111 -3.6508069038391113 -2.0346622467041016 
v 0.7511646747589111 -13.19950008392334 0.00006289999873843044 
v 0.7511646747589111 -3.6508069038391113 0.00006289999873843044 
v 2.3574886322021484 -2.5347259044647217 -3.4000699520111084 
v 2.3574886322021484 -2.5347259044647217 0.00006289999873843044 
v -2.7425899505615234 -2.5347259044647217 0.00006289999873843044 
v -2.7425899505615234 2.549643039703369 0.00006289999873843044 
v -2.7425899505615234 -2.5347259044647217 -3.4000699520111084 
v -2.7425899505615234 2.549643039703369 -3.4000699520111084 
vn -1.0341130485562108e-13 0.999997615814209 0.002184694167226553 
vn -1.0341130485562108e-13 0.999997615814209 0.002184694167226553 
vn -1.0341130485562108e-13 0.999997615814209 0.002184694167226553 
vn -1.0341130485562108e-13 0.999997615814209 0.002184694167226553 
vn 0.999997615814209 0 0.002184694167226553 
vn 0.999997615814209 0 0.002184694167226553 
vn 0.999997615814209 0 0.002184694167226553 
vn 0.999997615814209 0 0.002184694167226553 
vn -0.0019082654034718871 -0.09595967084169388 -0.9953833818435669 
vn 1.6551380220813233e-13 -0.5342764258384705 -0.8453097939491272 
vn -0.0019082654034718871 -0.09595967084169388 -0.9953833818435669 
vn 1.6551380220813233e-13 -0.5342764258384705 -0.8453097939491272 
vn -0.0018924816977232695 -0.2927601933479309 -0.9561840295791626 
vn -0.0018924816977232695 -0.2927601933479309 -0.9561840295791626 
vn -2.0682311115474694e-13 0 -1 
vn -2.0682311115474694e-13 0 -1 
vn 3.097898456858039e-13 -0.999997615814209 0.002184694167226553 
vn 3.097898456858039e-13 -0.999997615814209 0.002184694167226553 
vn 3.097898456858039e-13 -0.999997615814209 0.002184694167226553 
vn 3.097898456858039e-13 -0.999997615814209 0.002184694167226553 
vn 0 0 1 
vn 0 0 1 
vn 0 0 1 
vn 0 0 1 
vn 0 0 1 
vn 0 0 1 
vn 0 0 1 
vn 0 0 1 
vn -0.5865612626075745 -0.8099018931388855 -0.002184694167226553 
vn -0.8438400030136108 -0.5365904569625854 -0.002184694167226553 
vn -0.5865612626075745 -0.8099018931388855 -0.002184694167226553 
vn -0.8923717141151428 -0.4512958228588104 -0.002184694167226553 
vn -0.999997615814209 -2.0682260971124217e-13 -0.002184694167226553 
vn -0.999997615814209 -2.0682260971124217e-13 -0.002184694167226553 
vn 0.999997615814209 0 0.002184694167226553 
vn 0.8438400030136108 -0.5365904569625854 0.002184694167226553 
vn 0.999997615814209 0 0.002184694167226553 
vn 0.8923717141151428 -0.4512958228588104 0.002184694167226553 
vn 0.5865612626075745 -0.8099018931388855 0.002184694167226553 
vn 0.5865612626075745 -0.8099018931388855 0.002184694167226553 
vn -0.999997615814209 -2.0682260971124217e-13 0.002184694167226553 
vn -0.999997615814209 -2.0682260971124217e-13 0.002184694167226553 
vn -0.999997615814209 -2.0682260971124217e-13 0.002184694167226553 
vn -0.999997615814209 -2.0682260971124217e-13 0.002184694167226553 
vt 0.04958728700876236 0.1972000151872635 
vt 0.04681605100631714 0.1972000151872635 
vt 0.04958728700876236 0.19299492239952087 
vt 0.04681605100631714 0.19299492239952087 
vt 0.05071840435266495 0.19049042463302612 
vt 0.04647671803832054 0.19049042463302612 
vt 0.05071840435266495 0.18770763278007507 
vt 0.04647671803832054 0.18770763278007507 
vt 0.03482622280716896 0.1830078363418579 
vt 0.04268747940659523 0.1830078363418579 
vt 0.03482622280716896 0.18449197709560394 
vt 0.04268747940659523 0.18449197709560394 
vt 0.044101376086473465 0.1817092001438141 
vt 0.044101376086473465 0.18579061329364777 
vt 0.04828650504350662 0.1817092001438141 
vt 0.04828650504350662 0.18579061329364777 
vt 0.052075743675231934 0.19590137898921967 
vt 0.052075743675231934 0.1942935585975647 
vt 0.052980635315179825 0.19590137898921967 
vt 0.052980635315179825 0.1942935585975647 
vt 0.06350001692771912 0.18269863724708557 
vt 0.06350001692771912 0.18430645763874054 
vt 0.0556953139603138 0.18269863724708557 
vt 0.0556953139603138 0.18430645763874054 
vt 0.054790422320365906 0.18140000104904175 
vt 0.054790422320365906 0.18560509383678436 
vt 0.05060528963804245 0.18140000104904175 
vt 0.05060528963804245 0.18560509383678436 
vt 0.03510900214314461 0.1862853318452835 
vt 0.03669256344437599 0.18739844858646393 
vt 0.03510900214314461 0.1890990287065506 
vt 0.03669256344437599 0.1890990287065506 
vt 0.04449726641178131 0.18820235133171082 
vt 0.04449726641178131 0.1890990287065506 
vt 0.04398826137185097 0.19250020384788513 
vt 0.03618356212973595 0.1933041214942932 
vt 0.04398826137185097 0.19160354137420654 
vt 0.03618356212973595 0.19160354137420654 
vt 0.03460000082850456 0.1943863183259964 
vt 0.03460000082850456 0.19160354137420654 
vt 0.05671331658959389 0.19070686399936676 
vt 0.05252818763256073 0.19070686399936676 
vt 0.05671331658959389 0.18789315223693848 
vt 0.05252818763256073 0.18789315223693848 
usemtl ladder_2_f35_ext_1_0
s on 
f 1/1/1 2/2/2 3/3/3 
f 2/2/2 4/4/4 3/3/3 
f 3/3/3 4/4/4 4/4/4 
f 4/4/4 5/5/5 4/4/4 
f 4/4/4 5/5/5 5/5/5 
f 5/5/5 6/6/6 5/5/5 
f 5/5/5 6/6/6 7/7/7 
f 6/6/6 8/8/8 7/7/7 
f 7/7/7 8/8/8 8/8/8 
f 8/8/8 9/9/9 8/8/8 
f 8/8/8 9/9/9 9/9/9 
f 9/9/9 10/10/10 9/9/9 
f 9/9/9 10/10/10 11/11/11 
f 10/10/10 12/12/12 11/11/11 
f 11/11/11 12/12/12 12/12/12 
f 12/12/12 10/10/10 12/12/12 
f 12/12/12 10/10/10 10/10/10 
f 10/10/10 13/13/13 10/10/10 
f 10/10/10 13/13/13 12/12/12 
f 13/13/13 14/14/14 12/12/12 
f 12/12/12 14/14/14 14/14/14 
f 14/14/14 13/13/13 14/14/14 
f 14/14/14 13/13/13 13/13/13 
f 13/13/13 15/15/15 13/13/13 
f 13/13/13 15/15/15 14/14/14 
f 15/15/15 16/16/16 14/14/14 
f 14/14/14 16/16/16 16/16/16 
f 16/16/16 17/17/17 16/16/16 
f 16/16/16 17/17/17 17/17/17 
f 17/17/17 18/18/18 17/17/17 
f 17/17/17 18/18/18 19/19/19 
f 18/18/18 20/20/20 19/19/19 
f 19/19/19 20/20/20 20/20/20 
f 20/20/20 21/21/21 20/20/20 
f 20/20/20 21/21/21 21/21/21 
f 21/21/21 22/22/22 21/21/21 
f 21/21/21 22/22/22 23/23/23 
f 22/22/22 24/24/24 23/23/23 
f 23/23/23 24/24/24 25/25/25 
f 24/24/24 26/26/26 25/25/25 
f 25/25/25 26/26/26 27/27/27 
f 26/26/26 28/28/28 27/27/27 
f 27/27/27 28/28/28 28/28/28 
f 28/28/28 29/29/29 28/28/28 
f 28/28/28 29/29/29 29/29/29 
f 29/29/29 30/30/30 29/29/29 
f 29/29/29 30/30/30 31/31/31 
f 30/30/30 32/32/32 31/31/31 
f 31/31/31 32/32/32 32/32/32 
f 32/32/32 30/30/30 32/32/32 
f 32/32/32 30/30/30 30/30/30 
f 30/30/30 33/33/33 30/30/30 
f 30/30/30 33/33/33 32/32/32 
f 33/33/33 34/34/34 32/32/32 
f 32/32/32 34/34/34 34/34/34 
f 34/34/34 35/35/35 34/34/34 
f 34/34/34 35/35/35 35/35/35 
f 35/35/35 36/36/36 35/35/35 
f 35/35/35 36/36/36 37/37/37 
f 36/36/36 38/38/38 37/37/37 
f 37/37/37 38/38/38 38/38/38 
f 38/38/38 36/36/36 38/38/38 
f 38/38/38 36/36/36 36/36/36 
f 36/36/36 39/39/39 36/36/36 
f 36/36/36 39/39/39 38/38/38 
f 39/39/39 40/40/40 38/38/38 
f 38/38/38 40/40/40 40/40/40 
f 40/40/40 41/41/41 40/40/40 
f 40/40/40 41/41/41 41/41/41 
f 41/41/41 42/42/42 41/41/41 
f 41/41/41 42/42/42 43/43/43 
f 42/42/42 44/44/44 43/43/43 
