mtllib Object232_f35_pfd_0.mtl
o Object232_f35_pfd_0
v -1.3186663389205933 247.2471160888672 487.7336120605469 
v -1.318666696548462 243.3218994140625 485.4674377441406 
v -5.851133823394775 247.2471160888672 487.7336120605469 
v -5.851134300231934 243.3218994140625 485.4674377441406 
vn -0.0036796426866203547 0.4865824580192566 -0.8456200957298279 
vn -0.0036796426866203547 0.4865824580192566 -0.8456200957298279 
vn -0.0036796426866203547 0.4865824580192566 -0.8456200957298279 
vn -0.0036796426866203547 0.4865824580192566 -0.8456200957298279 
vt 1.3510299368135747e-7 1.000001311302185 
vt 1.3510299368135747e-7 7.152560215217818e-7 
vt 1.0000007152557373 1.000001311302185 
vt 1.0000007152557373 7.152560215217818e-7 
usemtl Object232_f35_pfd_0
s on 
f 1/1/1 2/2/2 3/3/3 
f 2/2/2 4/4/4 3/3/3 
