mtllib engine_blade_11_f35_ext_3_0.mtl
o engine_blade_11_f35_ext_3_0
v -12.19279956817627 -2.248741388320923 -7.132305145263672 
v -8.699429512023926 45.28545379638672 -6.692258358001709 
v -0.007005599793046713 -2.248741388320923 -5.76416015625 
v 0.009395199827849865 51.86226272583008 -6.972288131713867 
v 8.52140998840332 45.52174758911133 -6.820271968841553 
v 8.127791404724121 54.02827835083008 -7.692364692687988 
v 15.442547798156738 49.02675247192383 -8.82048511505127 
v 15.442547798156738 40.40207290649414 -7.372330665588379 
v 12.195189476013184 -2.248741388320923 -7.132305145263672 
v 15.475349426269531 48.12096405029297 -7.06829833984375 
v 15.442547798156738 49.02675247192383 -8.82048511505127 
v 8.094989776611328 53.16187286376953 -5.628145694732666 
v 8.127791404724121 54.02827835083008 -7.692364692687988 
v 0.0749984011054039 59.10857009887695 -4.764053821563721 
v 0.02579599991440773 60.01435852050781 -7.5643510818481445 
v -8.322211265563965 54.1070442199707 -7.74837064743042 
v 3.666773557662964 58.99042510986328 -8.420442581176758 
v 2.6991264820098877 50.64141845703125 -8.060403823852539 
v 3.847182512283325 59.029808044433594 -7.484342575073242 
v 2.912336826324463 50.64141845703125 -7.004291534423828 
v 0.5834231972694397 29.84766960144043 -5.812165260314941 
v 0.32101041078567505 29.84766960144043 -7.172309398651123 
v -0.0890095978975296 -2.4456520080566406 -5.540136337280273 
v -0.384223997592926 -2.3668878078460693 -6.972288131713867 
v -8.322211265563965 54.1070442199707 -7.74837064743042 
v 0.02579599991440773 60.01435852050781 -7.5643510818481445 
v 16.672607421875 58.99042510986328 -10.972713470458984 
v 10.27629566192627 54.34333801269531 -9.41254711151123 
v 16.83661651611328 58.95104217529297 -10.060616493225098 
v 10.555109977722168 54.303955078125 -8.028400421142578 
v 3.847182512283325 59.029808044433594 -7.484342575073242 
v 3.666773557662964 58.99042510986328 -8.420442581176758 
v -12.19279956817627 -2.1699771881103516 3.180790424346924 
v -0.007005599793046713 -2.1305952072143555 4.588940143585205 
v -8.30580997467041 53.319400787353516 -4.884066581726074 
v 0.0749984011054039 59.10857009887695 -4.764053821563721 
v 8.078588485717773 52.84681701660156 -4.788056373596191 
v 12.195189476013184 -2.1699771881103516 3.180790424346924 
v -8.322211265563965 54.1070442199707 -7.74837064743042 
v -8.699429512023926 45.28545379638672 -6.692258358001709 
v -8.30580997467041 53.319400787353516 -4.884066581726074 
v -12.19279956817627 -2.1699771881103516 3.180790424346924 
v 3.847182512283325 59.029808044433594 -7.484342575073242 
v 2.912336826324463 50.64141845703125 -7.004291534423828 
v 10.555109977722168 54.303955078125 -8.028400421142578 
v 10.6043119430542 46.466915130615234 -7.636358737945557 
v 17.853466033935547 50.60203552246094 -9.972606658935547 
v 21.248430252075195 -20.561418533325195 -11.788800239562988 
v 10.620713233947754 -20.600799560546875 -9.108514785766602 
v 21.1008243560791 -2.3668878078460693 -11.188735961914062 
v 10.473105430603027 -2.3668878078460693 -8.508451461791992 
v 10.341898918151855 27.209070205688477 -8.620463371276855 
v -0.384223997592926 -2.3668878078460693 -6.972288131713867 
v 0.32101041078567505 29.84766960144043 -7.172309398651123 
v -0.2366168051958084 -20.561418533325195 -7.5643510818481445 
v 21.1008243560791 -2.3668878078460693 -11.188735961914062 
v 20.116775512695312 29.84766960144043 -11.060722351074219 
v 21.379636764526367 -2.4456520080566406 -9.80458927154541 
v 20.3627872467041 29.80828857421875 -9.740582466125488 
v 17.853466033935547 50.60203552246094 -9.972606658935547 
v 17.65665626525879 50.64141845703125 -10.996715545654297 
v 16.83661651611328 58.95104217529297 -10.060616493225098 
v 16.672607421875 58.99042510986328 -10.972713470458984 
v 20.116775512695312 29.84766960144043 -11.060722351074219 
v 17.65665626525879 50.64141845703125 -10.996715545654297 
v 10.27629566192627 54.34333801269531 -9.41254711151123 
v 2.6991264820098877 50.64141845703125 -8.060403823852539 
v 3.666773557662964 58.99042510986328 -8.420442581176758 
v 8.094989776611328 53.16187286376953 -5.628145694732666 
v 8.078588485717773 52.84681701660156 -4.788056373596191 
v 12.195189476013184 -2.2093594074249268 2.3567028045654297 
v 12.195189476013184 -2.1699771881103516 3.180790424346924 
v 15.475349426269531 48.12096405029297 -7.06829833984375 
v 8.094989776611328 53.16187286376953 -5.628145694732666 
v 15.442547798156738 40.559600830078125 -5.828166961669922 
v 12.195189476013184 -2.2093594074249268 2.3567028045654297 
v 15.475349426269531 -1.9730666875839233 1.756639003753662 
v 15.475349426269531 -2.051831007003784 -7.860382556915283 
v 8.078588485717773 52.84681701660156 -4.788056373596191 
v -8.30580997467041 53.319400787353516 -4.884066581726074 
v -12.19279956817627 -2.248741388320923 -7.132305145263672 
v 16.83661651611328 58.95104217529297 -10.060616493225098 
v 16.672607421875 58.99042510986328 -10.972713470458984 
vn 0.1133599802851677 0 -0.9935539960861206 
vn 0.01325590442866087 -0.05070454254746437 -0.9986256957054138 
vn -0.002184688812121749 -0.0037839922588318586 -0.9999904632568359 
vn -0.0037817833945155144 -0.06975089013576508 -0.9975572824478149 
vn -0.10133888572454453 -0.06799781322479248 -0.9925254583358765 
vn -0.10923333466053009 -0.09988026320934296 -0.9889853596687317 
vn -0.21054668724536896 -0.13612857460975647 -0.9680594801902771 
vn -0.11693398654460907 -0.047924067825078964 -0.9919826984405518 
vn -0.16091927886009216 0.0038017809856683016 -0.986960232257843 
vn 0.5728661417961121 0.7339163422584534 0.3649536371231079 
vn 0.5696057677268982 0.7384533286094666 0.36088213324546814 
vn 0.5814065933227539 0.7463447451591492 0.3239381015300751 
vn 0.5771661996841431 0.7514029741287231 0.3198012113571167 
vn 0.018865669146180153 0.9486854076385498 0.31565824151039124 
vn -0.0018870257772505283 0.9502412676811218 0.31150925159454346 
vn -0.5579912066459656 0.7956147789955139 0.23588760197162628 
vn -0.974193811416626 0.11668062955141068 0.19321508705615997 
vn -0.974193811416626 0.11668062955141068 0.19321508705615997 
vn -0.974193811416626 0.11668062955141068 0.19321508705615997 
vn -0.974193811416626 0.11668062955141068 0.19321508705615997 
vn -0.977949857711792 0.06788046658039093 0.1975002884864807 
vn -0.977398157119751 0.07540857046842575 0.1975002884864807 
vn -0.9800412654876709 0.02264292910695076 0.1975002884864807 
vn -0.9800412654876709 0.02264292910695076 0.1975002884864807 
vn 0.06641358882188797 -0.10238412022590637 -0.9925254583358765 
vn 0.001910788007080555 -0.074186772108078 -0.9972425103187561 
vn -0.5641436576843262 0.8162810802459717 0.1242060661315918 
vn 0.005664747674018145 0.9989317059516907 0.04586252197623253 
vn -0.5641436576843262 0.8162810802459717 0.1242060661315918 
vn 0.005663556978106499 0.9987217783927917 0.05022686347365379 
vn 0.557918131351471 0.8205487132072449 -0.1242060661315918 
vn 0.5566393733024597 0.8207496404647827 -0.12854042649269104 
vn -0.1182909607887268 0.15005137026309967 0.9815762042999268 
vn -1.5753023885345385e-14 0.1523333042860031 0.9883291721343994 
vn -0.1182909607887268 0.15005137026309967 0.9815762042999268 
vn -1.5753023885345385e-14 0.1523333042860031 0.9883291721343994 
vn 0.1182909607887268 0.15005137026309967 0.9815762042999268 
vn 0.1182909607887268 0.15005137026309967 0.9815762042999268 
vn -0.998856782913208 0.04529063403606415 0.0152922747656703 
vn -0.9973419904708862 0.05661742389202118 -0.04586252197623253 
vn -0.9989712238311768 0.04529581964015961 0.002184694167226553 
vn -0.9971474409103394 0.07544711232185364 -0.002184694167226553 
vn 0.11395449936389923 0.04367658495903015 0.9925254583358765 
vn 0.11107984185218811 0.05054246261715889 0.9925254583358765 
vn 0.1945761740207672 0.04468590393662453 0.97986900806427 
vn 0.19721288979053497 0.05187339335680008 0.9789873361587524 
vn 0.2808389663696289 0.0448606051504612 0.9587059020996094 
vn -0.2450716495513916 0.026391102001070976 -0.9691457152366638 
vn -0.19301187992095947 0.030186505988240242 -0.9807319641113281 
vn -0.24622809886932373 0.011328202672302723 -0.9691457152366638 
vn -0.19073553383350372 0.011319171637296677 -0.9815762042999268 
vn -0.19073553383350372 -0.011319171637296677 -0.9815762042999268 
vn -0.13854843378067017 0.015068050473928452 -0.9902410507202148 
vn -0.14680813252925873 -0.0188510213047266 -0.9889853596687317 
vn -0.13965393602848053 0.03382053226232529 -0.9896226525306702 
vn 0.9806910753250122 0.030214769765734673 -0.19321508705615997 
vn 0.9790887236595154 0.07544618099927902 -0.18892620503902435 
vn 0.9806910753250122 0.030214769765734673 -0.19321508705615997 
vn 0.9790887236595154 0.07544618099927902 -0.18892620503902435 
vn 0.9770832657814026 0.11307774484157562 -0.18033768236637115 
vn 0.9770832657814026 0.11307774484157562 -0.18033768236637115 
vn 0.9770832657814026 0.11307774484157562 -0.18033768236637115 
vn 0.9770832657814026 0.11307774484157562 -0.18033768236637115 
vn -0.2375309020280838 -0.01509553287178278 -0.9712626934051514 
vn -0.22370268404483795 -0.026429323479533195 -0.9742990136146545 
vn -0.19403721392154694 -0.02267969772219658 -0.9807319641113281 
vn -0.15876883268356323 -0.02649383246898651 -0.986960232257843 
vn -0.1631503403186798 -0.026416055858135223 -0.9862475395202637 
vn 0.9942504167556763 0.08298425376415253 0.06767380982637405 
vn 0.9942504167556763 0.08298425376415253 0.06767380982637405 
vn 0.9971474409103394 0.07544711232185364 -0.002184694167226553 
vn 0.9971474409103394 0.07544711232185364 -0.002184694167226553 
vn 0.2886623740196228 0.15150171518325806 0.9453682899475098 
vn 0.2931191027164459 0.1518820822238922 0.9439348578453064 
vn 0.28958582878112793 0.1585150510072708 0.9439348578453064 
vn 0.18379132449626923 0.1705334186553955 0.9680594801902771 
vn 0.16795220971107483 0.17457923293113708 0.9702134728431702 
vn -0.2166038155555725 0.0075639719143509865 -0.976230263710022 
vn 0.5882371068000793 0.7480043172836304 0.30735430121421814 
vn -0.5548545122146606 0.8002698421478271 0.22738653421401978 
vn -0.9971474409103394 0.07544711232185364 -0.002184694167226553 
vn 0.2765790820121765 0.04494847357273102 0.9599394202232361 
vn -0.21940550208091736 -0.026493659242987633 -0.9752739667892456 
vt 0.3199519217014313 0.8634825348854065 
vt 0.4843907654285431 0.8758252263069153 
vt 0.319843590259552 0.9057724475860596 
vt 0.507139265537262 0.9059023857116699 
vt 0.4851490557193756 0.935200035572052 
vt 0.5148304104804993 0.9340956807136536 
vt 0.4977148771286011 0.9598854184150696 
vt 0.46749192476272583 0.9591708183288574 
vt 0.3199519217014313 0.948192298412323 
vt 0.11456581950187683 0.7308961153030396 
vt 0.11532409489154816 0.7227109670639038 
vt 0.15215493738651276 0.7295319437980652 
vt 0.15247991681098938 0.7201774716377258 
vt 0.19375212490558624 0.7245948314666748 
vt 0.19375212490558624 0.7123820781707764 
vt 0.23578260838985443 0.7186833620071411 
vt 0.9645999670028687 0.7981961965560913 
vt 0.9690412878990173 0.7633768320083618 
vt 0.968608021736145 0.7987158894538879 
vt 0.9733743667602539 0.7638965249061584 
vt 0.9855068325996399 0.6771079897880554 
vt 0.9796572327613831 0.6767832040786743 
vt 0.9892982840538025 0.5423778295516968 
vt 0.9832320213317871 0.5425727367401123 
vt 0.515047013759613 0.8769945502281189 
vt 0.5353040099143982 0.9059023857116699 
vt 0.8589820861816406 0.5302950143814087 
vt 0.8611485958099365 0.49690479040145874 
vt 0.8627734780311584 0.5302950143814087 
vt 0.8669981956481934 0.49690479040145874 
vt 0.8627734780311584 0.462799996137619 
vt 0.8587654232978821 0.46299487352371216 
vt 0.2444486916065216 0.994314968585968 
vt 0.19342714548110962 0.9948996305465698 
vt 0.22852477431297302 0.7607134580612183 
vt 0.19342714548110962 0.7368725538253784 
vt 0.15984608232975006 0.7625973224639893 
vt 0.14218895137310028 0.9941201210021973 
vt 0.2522481679916382 0.7548019289970398 
vt 0.2557145953178406 0.7917000651359558 
vt 0.24130722880363464 0.7607134580612183 
vt 0.2573394775390625 0.994314968585968 
vt 0.8979794383049011 0.8434743881225586 
vt 0.8938630819320679 0.8085900545120239 
vt 0.9260358810424805 0.8237910270690918 
vt 0.9260358810424805 0.7911803722381592 
vt 0.9575587511062622 0.8085900545120239 
vt 0.8794556856155396 0.4663079082965851 
vt 0.925277590751648 0.46637287735939026 
vt 0.8804306387901306 0.5423128604888916 
vt 0.9261441826820374 0.5423778295516968 
vt 0.9261441826820374 0.6656097769737244 
vt 0.9717494249343872 0.5425727367401123 
vt 0.9682829976081848 0.6767832040786743 
vt 0.9710994958877563 0.4665677547454834 
vt 0.8689481019973755 0.5423128604888916 
vt 0.8727394938468933 0.6765233278274536 
vt 0.8630985021591187 0.5421180129051208 
vt 0.8672148585319519 0.6765882968902588 
vt 0.8780474662780762 0.7633768320083618 
vt 0.882380485534668 0.7631170153617859 
vt 0.8824888467788696 0.7981961965560913 
vt 0.8863885402679443 0.7978714108467102 
vt 0.8841137290000916 0.6765233278274536 
vt 0.8938630819320679 0.7631170153617859 
vt 0.925277590751648 0.7787727117538452 
vt 0.9575587511062622 0.7633768320083618 
vt 0.9532257318496704 0.7983261346817017 
vt 0.1455470472574234 0.7605185508728027 
vt 0.1485801786184311 0.7625973224639893 
vt 0.12767326831817627 0.9934704899787903 
vt 0.13113969564437866 0.9941201210021973 
vt 0.10199999809265137 0.7802019119262695 
vt 0.13406449556350708 0.7605185508728027 
vt 0.10210832953453064 0.8122279047966003 
vt 0.1164073571562767 0.9934704899787903 
vt 0.10264995694160461 0.9921712875366211 
vt 0.3207101821899414 0.9598204493522644 
vt 0.15226326882839203 0.7332996726036072 
vt 0.23556596040725708 0.7310910224914551 
vt 0.2992616593837738 0.9856101274490356 
vt 0.9534423351287842 0.8434743881225586 
vt 0.8977627754211426 0.7980013489723206 
usemtl engine_blade_11_f35_ext_3_0
s on 
f 1/1/1 2/2/2 3/3/3 
f 2/2/2 4/4/4 3/3/3 
f 3/3/3 4/4/4 5/5/5 
f 4/4/4 6/6/6 5/5/5 
f 5/5/5 6/6/6 7/7/7 
f 6/6/6 7/7/7 7/7/7 
f 7/7/7 7/7/7 7/7/7 
f 7/7/7 8/8/8 7/7/7 
f 7/7/7 8/8/8 5/5/5 
f 8/8/8 9/9/9 5/5/5 
f 5/5/5 9/9/9 3/3/3 
f 9/9/9 3/3/3 3/3/3 
f 3/3/3 3/3/3 10/10/10 
f 3/3/3 10/10/10 10/10/10 
f 10/10/10 10/10/10 10/10/10 
f 10/10/10 11/11/11 10/10/10 
f 10/10/10 11/11/11 12/12/12 
f 11/11/11 13/13/13 12/12/12 
f 12/12/12 13/13/13 14/14/14 
f 13/13/13 15/15/15 14/14/14 
f 14/14/14 15/15/15 16/16/16 
f 15/15/15 16/16/16 16/16/16 
f 16/16/16 16/16/16 17/17/17 
f 16/16/16 17/17/17 17/17/17 
f 17/17/17 17/17/17 17/17/17 
f 17/17/17 18/18/18 17/17/17 
f 17/17/17 18/18/18 19/19/19 
f 18/18/18 20/20/20 19/19/19 
f 19/19/19 20/20/20 20/20/20 
f 20/20/20 18/18/18 20/20/20 
f 20/20/20 18/18/18 21/21/21 
f 18/18/18 22/22/22 21/21/21 
f 21/21/21 22/22/22 23/23/23 
f 22/22/22 24/24/24 23/23/23 
f 23/23/23 24/24/24 24/24/24 
f 24/24/24 2/2/2 24/24/24 
f 24/24/24 2/2/2 2/2/2 
f 2/2/2 25/25/25 2/2/2 
f 2/2/2 25/25/25 4/4/4 
f 25/25/25 26/26/26 4/4/4 
f 4/4/4 26/26/26 6/6/6 
f 26/26/26 6/6/6 6/6/6 
f 6/6/6 6/6/6 27/27/27 
f 6/6/6 27/27/27 27/27/27 
f 27/27/27 27/27/27 27/27/27 
f 27/27/27 28/28/28 27/27/27 
f 27/27/27 28/28/28 29/29/29 
f 28/28/28 30/30/30 29/29/29 
f 29/29/29 30/30/30 30/30/30 
f 30/30/30 28/28/28 30/30/30 
f 30/30/30 28/28/28 31/31/31 
f 28/28/28 32/32/32 31/31/31 
f 31/31/31 32/32/32 32/32/32 
f 32/32/32 33/33/33 32/32/32 
f 32/32/32 33/33/33 33/33/33 
f 33/33/33 34/34/34 33/33/33 
f 33/33/33 34/34/34 35/35/35 
f 34/34/34 36/36/36 35/35/35 
f 35/35/35 36/36/36 36/36/36 
f 36/36/36 34/34/34 36/36/36 
f 36/36/36 34/34/34 37/37/37 
f 34/34/34 38/38/38 37/37/37 
f 37/37/37 38/38/38 38/38/38 
f 38/38/38 39/39/39 38/38/38 
f 38/38/38 39/39/39 39/39/39 
f 39/39/39 40/40/40 39/39/39 
f 39/39/39 40/40/40 41/41/41 
f 40/40/40 42/42/42 41/41/41 
f 41/41/41 42/42/42 42/42/42 
f 42/42/42 43/43/43 42/42/42 
f 42/42/42 43/43/43 43/43/43 
f 43/43/43 44/44/44 43/43/43 
f 43/43/43 44/44/44 45/45/45 
f 44/44/44 46/46/46 45/45/45 
f 45/45/45 46/46/46 47/47/47 
f 46/46/46 47/47/47 47/47/47 
f 47/47/47 47/47/47 48/48/48 
f 47/47/47 48/48/48 48/48/48 
f 48/48/48 48/48/48 48/48/48 
f 48/48/48 49/49/49 48/48/48 
f 48/48/48 49/49/49 50/50/50 
f 49/49/49 51/51/51 50/50/50 
f 50/50/50 51/51/51 52/52/52 
f 51/51/51 53/53/53 52/52/52 
f 52/52/52 53/53/53 54/54/54 
f 53/53/53 54/54/54 54/54/54 
f 54/54/54 54/54/54 53/53/53 
f 54/54/54 53/53/53 53/53/53 
f 53/53/53 53/53/53 53/53/53 
f 53/53/53 51/51/51 53/53/53 
f 53/53/53 51/51/51 55/55/55 
f 51/51/51 49/49/49 55/55/55 
f 55/55/55 49/49/49 49/49/49 
f 49/49/49 56/56/56 49/49/49 
f 49/49/49 56/56/56 56/56/56 
f 56/56/56 57/57/57 56/56/56 
f 56/56/56 57/57/57 58/58/58 
f 57/57/57 59/59/59 58/58/58 
f 58/58/58 59/59/59 59/59/59 
f 59/59/59 57/57/57 59/59/59 
f 59/59/59 57/57/57 60/60/60 
f 57/57/57 61/61/61 60/60/60 
f 60/60/60 61/61/61 62/62/62 
f 61/61/61 63/63/63 62/62/62 
f 62/62/62 63/63/63 63/63/63 
f 63/63/63 50/50/50 63/63/63 
f 63/63/63 50/50/50 50/50/50 
f 50/50/50 52/52/52 50/50/50 
f 50/50/50 52/52/52 64/64/64 
f 52/52/52 65/65/65 64/64/64 
f 64/64/64 65/65/65 65/65/65 
f 65/65/65 52/52/52 65/65/65 
f 65/65/65 52/52/52 66/66/66 
f 52/52/52 67/67/67 66/66/66 
f 66/66/66 67/67/67 68/68/68 
f 67/67/67 68/68/68 68/68/68 
f 68/68/68 68/68/68 69/69/69 
f 68/68/68 69/69/69 69/69/69 
f 69/69/69 69/69/69 69/69/69 
f 69/69/69 70/70/70 69/69/69 
f 69/69/69 70/70/70 71/71/71 
f 70/70/70 72/72/72 71/71/71 
f 71/71/71 72/72/72 72/72/72 
f 72/72/72 73/73/73 72/72/72 
f 72/72/72 73/73/73 73/73/73 
f 73/73/73 74/74/74 73/73/73 
f 73/73/73 74/74/74 75/75/75 
f 74/74/74 76/76/76 75/75/75 
f 75/75/75 76/76/76 77/77/77 
f 8/8/8 78/78/78 9/9/9 
f 14/14/14 79/79/79 12/12/12 
f 16/16/16 80/80/80 14/14/14 
f 40/40/40 81/81/81 42/42/42 
f 47/47/47 82/82/82 45/45/45 
f 83/83/83 65/65/65 66/66/66 
f 52/52/52 54/54/54 67/67/67 
