mtllib ladder_2_f35_ext_3_0.mtl
o ladder_2_f35_ext_3_0
v -2.3005900382995605 -2.125309944152832 0.007507320027798414 
v 1.949465036392212 -2.125309944152832 0.007507320027798414 
v -2.3005900382995605 -2.125309944152832 39.16325759887695 
v 1.949465036392212 -2.125309944152832 39.16325759887695 
v 1.949465036392212 2.1246941089630127 39.16325759887695 
v 1.949465036392212 -2.125309944152832 39.16325759887695 
v 1.949465036392212 2.1246941089630127 0.007507320027798414 
v 1.949465036392212 -2.125309944152832 0.007507320027798414 
v -2.3005900382995605 2.1246941089630127 0.007507320027798414 
v -2.3005900382995605 -2.125309944152832 0.007507320027798414 
v -2.3005900382995605 2.1246941089630127 39.16325759887695 
v -2.3005900382995605 -2.125309944152832 39.16325759887695 
v 1.949465036392212 2.1246941089630127 0.007507320027798414 
v -2.3005900382995605 2.1246941089630127 0.007507320027798414 
v 1.949465036392212 2.1246941089630127 39.16325759887695 
v -2.3005900382995605 2.1246941089630127 39.16325759887695 
vn 3.097898456858039e-13 -0.999997615814209 0.002184694167226553 
vn 3.097898456858039e-13 -0.999997615814209 0.002184694167226553 
vn 3.097898456858039e-13 -0.999997615814209 0.002184694167226553 
vn 3.097898456858039e-13 -0.999997615814209 0.002184694167226553 
vn 0.999997615814209 0 -0.002184694167226553 
vn 0.999997615814209 0 -0.002184694167226553 
vn 0.999997615814209 0 -0.002184694167226553 
vn 0.999997615814209 0 -0.002184694167226553 
vn -0.999997615814209 -2.0682260971124217e-13 0.002184694167226553 
vn -0.999997615814209 -2.0682260971124217e-13 0.002184694167226553 
vn -0.999997615814209 -2.0682260971124217e-13 0.002184694167226553 
vn -0.999997615814209 -2.0682260971124217e-13 0.002184694167226553 
vn -1.0341130485562108e-13 0.999997615814209 0.002184694167226553 
vn -1.0341130485562108e-13 0.999997615814209 0.002184694167226553 
vn -1.0341130485562108e-13 0.999997615814209 0.002184694167226553 
vn -1.0341130485562108e-13 0.999997615814209 0.002184694167226553 
vt 0.1080000028014183 0.5457000136375427 
vt 0.12376730889081955 0.5457000136375427 
vt 0.1080000028014183 0.6917999982833862 
vt 0.12376730889081955 0.6917999982833862 
vt 0.14336591958999634 0.6917999982833862 
vt 0.12745125591754913 0.6917999982833862 
vt 0.14336591958999634 0.5457000136375427 
vt 0.12745125591754913 0.5457000136375427 
vt 0.16753263771533966 0.5457000136375427 
vt 0.1832999438047409 0.5457000136375427 
vt 0.16753263771533966 0.6917999982833862 
vt 0.1832999438047409 0.6917999982833862 
vt 0.14763930439949036 0.5457000136375427 
vt 0.1634066104888916 0.5457000136375427 
vt 0.14763930439949036 0.6917999982833862 
vt 0.1634066104888916 0.6917999982833862 
usemtl ladder_2_f35_ext_3_0
s on 
f 1/1/1 2/2/2 3/3/3 
f 2/2/2 4/4/4 3/3/3 
f 3/3/3 4/4/4 4/4/4 
f 4/4/4 5/5/5 4/4/4 
f 4/4/4 5/5/5 5/5/5 
f 5/5/5 6/6/6 5/5/5 
f 5/5/5 6/6/6 7/7/7 
f 6/6/6 8/8/8 7/7/7 
f 7/7/7 8/8/8 8/8/8 
f 8/8/8 9/9/9 8/8/8 
f 8/8/8 9/9/9 9/9/9 
f 9/9/9 10/10/10 9/9/9 
f 9/9/9 10/10/10 11/11/11 
f 10/10/10 12/12/12 11/11/11 
f 11/11/11 12/12/12 12/12/12 
f 12/12/12 13/13/13 12/12/12 
f 12/12/12 13/13/13 13/13/13 
f 13/13/13 14/14/14 13/13/13 
f 13/13/13 14/14/14 15/15/15 
f 14/14/14 16/16/16 15/15/15 
