mtllib ladder_hatch_f35_ext_1_0.mtl
o ladder_hatch_f35_ext_1_0
v 29.16678810119629 18.654603958129883 -3.985808849334717 
v 14.969019889831543 8.245491981506348 -2.9011433124542236 
v 31.35106086730957 34.6400260925293 -3.0680150985717773 
v 13.330816268920898 46.536155700683594 2.855926752090454 
v -0.8669520020484924 19.39811134338379 -0.8986842036247253 
v -1.4130200147628784 35.3835334777832 0.9369034171104431 
v -12.880448341369629 43.933876037597656 1.9381330013275146 
v -15.064720153808594 8.6172456741333 -3.818937301635742 
v -30.354623794555664 29.80722427368164 -3.985808849334717 
v -28.716419219970703 19.026357650756836 -5.153910160064697 
v -1.4130200147628784 35.3835334777832 0.9369034171104431 
v -1.4130200147628784 39.844581604003906 4.0240278244018555 
v 13.330816268920898 46.536155700683594 2.855926752090454 
v 13.330816268920898 50.62544631958008 5.442436695098877 
v 13.330816268920898 50.62544631958008 5.442436695098877 
v 35.17353439331055 36.12704086303711 -1.3992990255355835 
v 13.330816268920898 46.536155700683594 2.855926752090454 
v 31.35106086730957 34.6400260925293 -3.0680150985717773 
v -12.880448341369629 48.023170471191406 4.608078479766846 
v -12.880448341369629 43.933876037597656 1.9381330013275146 
v -34.177101135253906 31.294240951538086 -2.3170928955078125 
v -30.354623794555664 29.80722427368164 -3.985808849334717 
v 14.969019889831543 3.4126899242401123 -1.566170573234558 
v 14.969019889831543 8.245491981506348 -2.9011433124542236 
v 32.98926544189453 16.42407989501953 -2.6508359909057617 
v 29.16678810119629 18.654603958129883 -3.985808849334717 
v 29.16678810119629 18.654603958129883 -3.985808849334717 
v 31.35106086730957 34.6400260925293 -3.0680150985717773 
v 32.98926544189453 16.42407989501953 -2.6508359909057617 
v 35.17353439331055 36.12704086303711 -1.3992990255355835 
v -0.8669520020484924 19.39811134338379 -0.8986842036247253 
v -0.32088398933410645 14.19355583190918 0.853467583656311 
v -15.064720153808594 8.6172456741333 -3.818937301635742 
v -14.518651962280273 3.4126899242401123 -2.4005286693573 
v -1.4130200147628784 35.3835334777832 0.9369034171104431 
v -12.880448341369629 43.933876037597656 1.9381330013275146 
v -1.4130200147628784 39.844581604003906 4.0240278244018555 
v -12.880448341369629 48.023170471191406 4.608078479766846 
v 14.969019889831543 3.4126899242401123 -1.566170573234558 
v -0.32088398933410645 14.19355583190918 0.853467583656311 
v 14.969019889831543 8.245491981506348 -2.9011433124542236 
v -0.8669520020484924 19.39811134338379 -0.8986842036247253 
v -28.716419219970703 19.026357650756836 -5.153910160064697 
v -15.064720153808594 8.6172456741333 -3.818937301635742 
v -31.992828369140625 16.42407989501953 -3.9023730754852295 
v -14.518651962280273 3.4126899242401123 -2.4005286693573 
v -30.354623794555664 29.80722427368164 -3.985808849334717 
v -28.716419219970703 19.026357650756836 -5.153910160064697 
v -34.177101135253906 31.294240951538086 -2.3170928955078125 
v -31.992828369140625 16.42407989501953 -3.9023730754852295 
v 32.98926544189453 16.42407989501953 -2.6508359909057617 
v 35.17353439331055 36.12704086303711 -1.3992990255355835 
v 14.969019889831543 3.4126899242401123 -1.566170573234558 
v 13.330816268920898 50.62544631958008 5.442436695098877 
v -0.32088398933410645 14.19355583190918 0.853467583656311 
v -1.4130200147628784 39.844581604003906 4.0240278244018555 
v -12.880448341369629 48.023170471191406 4.608078479766846 
v -14.518651962280273 3.4126899242401123 -2.4005286693573 
v -34.177101135253906 31.294240951538086 -2.3170928955078125 
v -31.992828369140625 16.42407989501953 -3.9023730754852295 
vn -0.12313101440668106 0.06527993083000183 -0.9902410507202148 
vn -0.10948734730482101 0.12950223684310913 -0.9855159521102905 
vn -0.2107362300157547 0.11948259174823761 -0.9702134728431702 
vn -0.1117725595831871 0.1332053393125534 -0.9847655892372131 
vn 0.028180450201034546 0.1453060656785965 -0.9889853596687317 
vn 0.024595506489276886 0.11510159820318222 -0.9930492043495178 
vn 0.11713816970586777 0.1399279683828354 -0.983208417892456 
vn 0.15052075684070587 0.1438378542661667 -0.9780870079994202 
vn 0.20633913576602936 0.14242562651634216 -0.9680594801902771 
vn 0.19515274465084076 0.12868960201740265 -0.9722933769226074 
vn -0.3267543911933899 0.5659552216529846 -0.7569189071655273 
vn -0.32125142216682434 0.5614601969718933 -0.762600839138031 
vn -0.30253279209136963 0.5088815689086914 -0.8059239983558655 
vn -0.2972273826599121 0.49968674778938293 -0.8136147856712341 
vn 0.08468016982078552 0.5237767696380615 -0.8476362228393555 
vn 0.11457733064889908 0.5772303342819214 -0.8085030317306519 
vn 0.08844795823097229 0.5306440591812134 -0.8429672718048096 
vn 0.1238078624010086 0.5861054062843323 -0.8007197380065918 
vn -0.14937610924243927 0.5282543897628784 -0.8358433246612549 
vn -0.15123024582862854 0.5315191745758057 -0.8334367275238037 
vn -0.16594339907169342 0.5572196841239929 -0.8136147856712341 
vn -0.16958612203598022 0.5635276436805725 -0.8085030317306519 
vn 0.12423929572105408 -0.2604731023311615 -0.9574540853500366 
vn 0.12969934940338135 -0.26246941089630127 -0.9561840295791626 
vn 0.13214485347270966 -0.2843817472457886 -0.949560284614563 
vn 0.13745683431625366 -0.2910432815551758 -0.946783721446991 
vn 0.3462483286857605 0.015117527917027473 -0.9380210638046265 
vn 0.3747974932193756 0.015103822574019432 -0.926983654499054 
vn 0.35034653544425964 0.015138567425310612 -0.9364978075027466 
vn 0.37884679436683655 0.015121448785066605 -0.9253358840942383 
vn 0.39888840913772583 -0.28327447175979614 -0.872148871421814 
vn 0.3983224332332611 -0.2706996500492096 -0.8763908743858337 
vn 0.38275372982025146 -0.23044753074645996 -0.8946471214294434 
vn 0.3822616636753082 -0.22360922396183014 -0.8965907096862793 
vn 0.33652788400650024 0.5601988434791565 -0.7569189071655273 
vn 0.3273424506187439 0.5141175985336304 -0.7927988767623901 
vn 0.3342769145965576 0.5538040399551392 -0.762600839138031 
vn 0.33021941781044006 0.5039841532707214 -0.7980946898460388 
vn -0.3194245398044586 -0.25265753269195557 -0.913308322429657 
vn -0.3353407680988312 -0.31262415647506714 -0.888714075088501 
vn -0.32210198044776917 -0.2620493769645691 -0.9097144603729248 
vn -0.33954182267189026 -0.3194740116596222 -0.8846737742424011 
vn -0.127099871635437 -0.29571303725242615 -0.946783721446991 
vn -0.11737833172082901 -0.26363605260849 -0.9574540853500366 
vn -0.12507468461990356 -0.29207703471183777 -0.9481810927391052 
vn -0.11737833172082901 -0.26363605260849 -0.9574540853500366 
vn -0.38456934690475464 0.04523146152496338 -0.9219872951507568 
vn -0.3795287311077118 0.05282957851886749 -0.9236704111099243 
vn -0.38361358642578125 0.05272647365927696 -0.9219872951507568 
vn -0.3759661912918091 0.04902013763785362 -0.9253358840942383 
vn 0.11574799567461014 -0.07762162387371063 0.9902410507202148 
vn 0.19490332901477814 -0.12119867652654648 0.9733054637908936 
vn 0.11892485618591309 -0.12686073780059814 0.9847655892372131 
vn 0.11358154565095901 -0.13729651272296906 0.9839963912963867 
vn -0.02773495949804783 -0.14539174735546112 0.9889853596687317 
vn -0.023971552029252052 -0.1240791603922844 0.9919826984405518 
vn -0.1296992003917694 -0.14030781388282776 0.9815762042999268 
vn -0.1567183881998062 -0.14346465468406677 0.9771679639816284 
vn -0.19510048627853394 -0.1436024159193039 0.9702134728431702 
vn -0.1839824765920639 -0.12996864318847656 0.9742990136146545 
vt 0.654303789138794 0.5625166893005371 
vt 0.6577881574630737 0.5678816437721252 
vt 0.6487103700637817 0.5616695880889893 
vt 0.6440339088439941 0.5680933594703674 
vt 0.6535701751708984 0.5735288858413696 
vt 0.6477017402648926 0.5735288858413696 
vt 0.644584059715271 0.577623188495636 
vt 0.6574214100837708 0.5788232088088989 
vt 0.6496273279190063 0.5841881632804871 
vt 0.6535701751708984 0.5838351845741272 
vt 0.6477017402648926 0.5735288858413696 
vt 0.6458678245544434 0.5733877420425415 
vt 0.6440339088439941 0.5680933594703674 
vt 0.6421999931335449 0.5680933594703674 
vt 0.6421999931335449 0.5680933594703674 
vt 0.6480684876441956 0.5601165890693665 
vt 0.6440339088439941 0.5680933594703674 
vt 0.6487103700637817 0.5616695880889893 
vt 0.6429335474967957 0.5774819850921631 
vt 0.644584059715271 0.577623188495636 
vt 0.6489854454994202 0.585599958896637 
vt 0.6496273279190063 0.5841881632804871 
vt 0.659622073173523 0.5680227875709534 
vt 0.6577881574630737 0.5678816437721252 
vt 0.6553124189376831 0.5611754655838013 
vt 0.654303789138794 0.5625166893005371 
vt 0.654303789138794 0.5625166893005371 
vt 0.6487103700637817 0.5616695880889893 
vt 0.6553124189376831 0.5611754655838013 
vt 0.6480684876441956 0.5601165890693665 
vt 0.6535701751708984 0.5735288858413696 
vt 0.6555874943733215 0.5733877420425415 
vt 0.6574214100837708 0.5788232088088989 
vt 0.65925532579422 0.5786820650100708 
vt 0.6477017402648926 0.5735288858413696 
vt 0.644584059715271 0.577623188495636 
vt 0.6458678245544434 0.5733877420425415 
vt 0.6429335474967957 0.5774819850921631 
vt 0.659622073173523 0.5680227875709534 
vt 0.6555874943733215 0.5733877420425415 
vt 0.6577881574630737 0.5678816437721252 
vt 0.6535701751708984 0.5735288858413696 
vt 0.6535701751708984 0.5838351845741272 
vt 0.6574214100837708 0.5788232088088989 
vt 0.6543954610824585 0.585105836391449 
vt 0.65925532579422 0.5786820650100708 
vt 0.6496273279190063 0.5841881632804871 
vt 0.6535701751708984 0.5838351845741272 
vt 0.6489854454994202 0.585599958896637 
vt 0.6543954610824585 0.585105836391449 
vt 0.8222893476486206 0.4838781952857971 
vt 0.8098188042640686 0.4857841730117798 
vt 0.8299000859260559 0.4722306728363037 
vt 0.7996406555175781 0.47187772393226624 
vt 0.8225644826889038 0.4624185264110565 
vt 0.8063344359397888 0.4624890983104706 
vt 0.8008326888084412 0.45521822571754456 
vt 0.8295332789421082 0.4531710743904114 
vt 0.8115610480308533 0.44110000133514404 
vt 0.821005642414093 0.4420882761478424 
usemtl ladder_hatch_f35_ext_1_0
s on 
f 1/1/1 2/2/2 3/3/3 
f 2/2/2 4/4/4 3/3/3 
f 3/3/3 4/4/4 4/4/4 
f 4/4/4 2/2/2 4/4/4 
f 4/4/4 2/2/2 2/2/2 
f 2/2/2 5/5/5 2/2/2 
f 2/2/2 5/5/5 4/4/4 
f 5/5/5 6/6/6 4/4/4 
f 4/4/4 6/6/6 6/6/6 
f 6/6/6 5/5/5 6/6/6 
f 6/6/6 5/5/5 7/7/7 
f 5/5/5 8/8/8 7/7/7 
f 7/7/7 8/8/8 9/9/9 
f 8/8/8 10/10/10 9/9/9 
f 9/9/9 10/10/10 10/10/10 
f 10/10/10 11/11/11 10/10/10 
f 10/10/10 11/11/11 11/11/11 
f 11/11/11 12/12/12 11/11/11 
f 11/11/11 12/12/12 13/13/13 
f 12/12/12 14/14/14 13/13/13 
f 13/13/13 14/14/14 14/14/14 
f 14/14/14 15/15/15 14/14/14 
f 14/14/14 15/15/15 15/15/15 
f 15/15/15 16/16/16 15/15/15 
f 15/15/15 16/16/16 17/17/17 
f 16/16/16 18/18/18 17/17/17 
f 17/17/17 18/18/18 18/18/18 
f 18/18/18 19/19/19 18/18/18 
f 18/18/18 19/19/19 19/19/19 
f 19/19/19 20/20/20 19/19/19 
f 19/19/19 20/20/20 21/21/21 
f 20/20/20 22/22/22 21/21/21 
f 21/21/21 22/22/22 22/22/22 
f 22/22/22 23/23/23 22/22/22 
f 22/22/22 23/23/23 23/23/23 
f 23/23/23 24/24/24 23/23/23 
f 23/23/23 24/24/24 25/25/25 
f 24/24/24 26/26/26 25/25/25 
f 25/25/25 26/26/26 26/26/26 
f 26/26/26 27/27/27 26/26/26 
f 26/26/26 27/27/27 27/27/27 
f 27/27/27 28/28/28 27/27/27 
f 27/27/27 28/28/28 29/29/29 
f 28/28/28 30/30/30 29/29/29 
f 29/29/29 30/30/30 30/30/30 
f 30/30/30 31/31/31 30/30/30 
f 30/30/30 31/31/31 31/31/31 
f 31/31/31 32/32/32 31/31/31 
f 31/31/31 32/32/32 33/33/33 
f 32/32/32 34/34/34 33/33/33 
f 33/33/33 34/34/34 34/34/34 
f 34/34/34 35/35/35 34/34/34 
f 34/34/34 35/35/35 35/35/35 
f 35/35/35 36/36/36 35/35/35 
f 35/35/35 36/36/36 37/37/37 
f 36/36/36 38/38/38 37/37/37 
f 37/37/37 38/38/38 38/38/38 
f 38/38/38 39/39/39 38/38/38 
f 38/38/38 39/39/39 39/39/39 
f 39/39/39 40/40/40 39/39/39 
f 39/39/39 40/40/40 41/41/41 
f 40/40/40 42/42/42 41/41/41 
f 41/41/41 42/42/42 42/42/42 
f 42/42/42 43/43/43 42/42/42 
f 42/42/42 43/43/43 43/43/43 
f 43/43/43 44/44/44 43/43/43 
f 43/43/43 44/44/44 45/45/45 
f 44/44/44 46/46/46 45/45/45 
f 45/45/45 46/46/46 46/46/46 
f 46/46/46 47/47/47 46/46/46 
f 46/46/46 47/47/47 47/47/47 
f 47/47/47 48/48/48 47/47/47 
f 47/47/47 48/48/48 49/49/49 
f 48/48/48 50/50/50 49/49/49 
f 49/49/49 50/50/50 50/50/50 
f 50/50/50 51/51/51 50/50/50 
f 50/50/50 51/51/51 51/51/51 
f 51/51/51 52/52/52 51/51/51 
f 51/51/51 52/52/52 53/53/53 
f 52/52/52 54/54/54 53/53/53 
f 53/53/53 54/54/54 55/55/55 
f 54/54/54 56/56/56 55/55/55 
f 55/55/55 56/56/56 57/57/57 
f 56/56/56 57/57/57 57/57/57 
f 57/57/57 57/57/57 55/55/55 
f 57/57/57 55/55/55 55/55/55 
f 55/55/55 55/55/55 55/55/55 
f 55/55/55 57/57/57 55/55/55 
f 55/55/55 57/57/57 58/58/58 
f 57/57/57 59/59/59 58/58/58 
f 58/58/58 59/59/59 60/60/60 
