mtllib ladder_3_f35_ext_3_0.mtl
o ladder_3_f35_ext_3_0
v -1.8755700588226318 -1.700410008430481 -0.06393429636955261 
v 1.5244866609573364 -1.700410008430481 -0.06393429636955261 
v -1.8755700588226318 -1.700410008430481 39.1633186340332 
v 1.5244866609573364 -1.700410008430481 39.1633186340332 
v 1.5244866609573364 1.6997102499008179 39.1633186340332 
v 1.5244866609573364 -1.700410008430481 39.1633186340332 
v 1.5244866609573364 1.6997102499008179 -0.06393429636955261 
v 1.5244866609573364 -1.700410008430481 -0.06393429636955261 
v -1.8755700588226318 1.6997102499008179 -0.06393429636955261 
v -1.8755700588226318 -1.700410008430481 -0.06393429636955261 
v -1.8755700588226318 1.6997102499008179 39.1633186340332 
v -1.8755700588226318 -1.700410008430481 39.1633186340332 
v 1.5244866609573364 1.6997102499008179 -0.06393429636955261 
v -1.8755700588226318 1.6997102499008179 -0.06393429636955261 
v 1.5244866609573364 1.6997102499008179 39.1633186340332 
v -1.8755700588226318 1.6997102499008179 39.1633186340332 
vn 3.097898456858039e-13 -0.999997615814209 -0.002184694167226553 
vn 3.097898456858039e-13 -0.999997615814209 -0.002184694167226553 
vn 3.097898456858039e-13 -0.999997615814209 -0.002184694167226553 
vn 3.097898456858039e-13 -0.999997615814209 0.002184694167226553 
vn 0.999997615814209 0 0.002184694167226553 
vn 0.999997615814209 0 0.002184694167226553 
vn 0.999997615814209 0 0.002184694167226553 
vn 0.999997615814209 0 0.002184694167226553 
vn -0.999997615814209 -2.0682260971124217e-13 0.002184694167226553 
vn -0.999997615814209 -2.0682260971124217e-13 0.002184694167226553 
vn -0.999997615814209 -2.0682260971124217e-13 0.002184694167226553 
vn -0.999997615814209 -2.0682260971124217e-13 0.002184694167226553 
vn -1.0341130485562108e-13 0.999997615814209 0.002184694167226553 
vn -1.0341130485562108e-13 0.999997615814209 0.002184694167226553 
vn -1.0341130485562108e-13 0.999997615814209 0.002184694167226553 
vn -1.0341130485562108e-13 0.999997615814209 0.002184694167226553 
vt 0.18940000236034393 0.5450000166893005 
vt 0.2021520435810089 0.5450000166893005 
vt 0.18940000236034393 0.6912997961044312 
vt 0.2021520435810089 0.6912997961044312 
vt 0.21764518320560455 0.6912997961044312 
vt 0.20501232147216797 0.6912997961044312 
vt 0.21764518320560455 0.5450000166893005 
vt 0.20501232147216797 0.5450000166893005 
vt 0.23754791915416718 0.5450000166893005 
vt 0.25029996037483215 0.5450000166893005 
vt 0.23754791915416718 0.6912997961044312 
vt 0.25029996037483215 0.6912997961044312 
vt 0.22122052311897278 0.5450000166893005 
vt 0.23385339975357056 0.5450000166893005 
vt 0.22122052311897278 0.6912997961044312 
vt 0.23385339975357056 0.6912997961044312 
usemtl ladder_3_f35_ext_3_0
s on 
f 1/1/1 2/2/2 3/3/3 
f 2/2/2 4/4/4 3/3/3 
f 3/3/3 4/4/4 4/4/4 
f 4/4/4 5/5/5 4/4/4 
f 4/4/4 5/5/5 5/5/5 
f 5/5/5 6/6/6 5/5/5 
f 5/5/5 6/6/6 7/7/7 
f 6/6/6 8/8/8 7/7/7 
f 7/7/7 8/8/8 8/8/8 
f 8/8/8 9/9/9 8/8/8 
f 8/8/8 9/9/9 9/9/9 
f 9/9/9 10/10/10 9/9/9 
f 9/9/9 10/10/10 11/11/11 
f 10/10/10 12/12/12 11/11/11 
f 11/11/11 12/12/12 12/12/12 
f 12/12/12 13/13/13 12/12/12 
f 12/12/12 13/13/13 13/13/13 
f 13/13/13 14/14/14 13/13/13 
f 13/13/13 14/14/14 15/15/15 
f 14/14/14 16/16/16 15/15/15 
