mtllib undefined.mtl
o undefined
v 0.000025471439585089684 -16.399696350097656 -28.98614501953125 
v 2.179725170135498 -16.983680725097656 -28.98614501953125 
v 0.000007923808880150318 -16.399662017822266 -102.5863265991211 
v 2.179607629776001 -16.983646392822266 -102.5863265991211 
v 3.775325298309326 -18.579383850097656 -28.98614501953125 
v 3.7753076553344727 -18.57925796508789 -102.5863265991211 
v 4.359424591064453 -20.75897979736328 -28.98614501953125 
v 4.359307289123535 -20.758943557739258 -102.5863265991211 
v 3.775325298309326 -22.938697814941406 -28.98614501953125 
v 3.7753076553344727 -22.938663482666016 -102.5863265991211 
v 2.179725170135498 -24.53437042236328 -28.98614501953125 
v 2.179607629776001 -24.534244537353516 -102.5863265991211 
v 0.000025471439585089684 -25.118385314941406 -28.98614501953125 
v 0.000007923808880150318 -25.11825942993164 -102.5863265991211 
v -2.1796741485595703 -24.53437042236328 -28.98614501953125 
v -2.179691791534424 -24.534244537353516 -102.5863265991211 
v -3.7752742767333984 -22.938697814941406 -28.98614501953125 
v -3.775291919708252 -22.938663482666016 -102.5863265991211 
v -4.359274387359619 -20.759071350097656 -28.98614501953125 
v -4.359391689300537 -20.758943557739258 -102.5863265991211 
v -3.7752742767333984 -18.579383850097656 -28.98614501953125 
v -3.775291919708252 -18.57925796508789 -102.5863265991211 
v -2.1796741485595703 -16.98377227783203 -28.98614501953125 
v -2.179691791534424 -16.983646392822266 -102.5863265991211 
v 0.000025471439585089684 -16.399696350097656 -28.98614501953125 
v 0.000007923808880150318 -16.399662017822266 -102.5863265991211 
v 0.00030420071561820805 60.28506088256836 -28.131315231323242 
v 2.4488048553466797 59.902950286865234 -27.433408737182617 
v 0.00032694186666049063 16.33428955078125 -52.225521087646484 
v 2.4475276470184326 15.949583053588867 -51.52982711791992 
v 3.962106466293335 58.902645111083984 -25.606510162353516 
v 3.959829330444336 14.957304000854492 -49.69973373413086 
v 3.959831476211548 13.721586227416992 -47.44272994995117 
v 3.962108612060547 57.666255950927734 -23.348308563232422 
v 2.44881010055542 56.66594696044922 -21.521411895751953 
v 2.447532892227173 12.714200973510742 -45.62092971801758 
v 0.00031080152257345617 56.28386688232422 -20.823612213134766 
v 0.0003335388901177794 12.335386276245117 -44.92203140258789 
v -2.446967124938965 12.714200973510742 -45.62092208862305 
v -2.4482898712158203 56.66594696044922 -21.521411895751953 
v -3.959268569946289 13.721586227416992 -47.44282150268555 
v -3.961491584777832 57.666255950927734 -23.348308563232422 
v -3.959270715713501 14.957304000854492 -49.69972610473633 
v -3.961493730545044 58.902645111083984 -25.606510162353516 
v -2.4482951164245605 59.902950286865234 -27.433507919311523 
v -2.446972370147705 15.949583053588867 -51.52982711791992 
v 0.00030420071561820805 60.28506088256836 -28.131315231323242 
v 0.00032694186666049063 16.33428955078125 -52.225521087646484 
vn -1.0341130485562108e-13 0.999997615814209 0.002184694167226553 
vn 0.49781718850135803 0.8672792315483093 -0.002184694167226553 
vn -1.0341130485562108e-13 0.999997615814209 0.002184694167226553 
vn 0.49781718850135803 0.8672792315483093 0.002184694167226553 
vn 0.8672792315483093 0.49781718850135803 -0.002184694167226553 
vn 0.8672792315483093 0.49781718850135803 -0.002184694167226553 
vn 0.999997615814209 0 -0.002184694167226553 
vn 0.999997615814209 0 -0.002184694167226553 
vn 0.8672792315483093 -0.49781718850135803 -0.002184694167226553 
vn 0.8672792315483093 -0.49781718850135803 -0.002184694167226553 
vn 0.49781718850135803 -0.8672792315483093 -0.002184694167226553 
vn 0.49781718850135803 -0.8672792315483093 -0.002184694167226553 
vn 3.097898456858039e-13 -0.999997615814209 -0.002184694167226553 
vn 3.097898456858039e-13 -0.999997615814209 -0.002184694167226553 
vn -0.49781718850135803 -0.8672792315483093 -0.002184694167226553 
vn -0.49781718850135803 -0.8672792315483093 -0.002184694167226553 
vn -0.8672792315483093 -0.49781718850135803 -0.002184694167226553 
vn -0.8672792315483093 -0.49781718850135803 0.002184694167226553 
vn -0.999997615814209 -2.0682260971124217e-13 0.002184694167226553 
vn -0.999997615814209 -2.0682260971124217e-13 0.002184694167226553 
vn -0.8672792315483093 0.49781718850135803 0.002184694167226553 
vn -0.8672792315483093 0.49781718850135803 0.002184694167226553 
vn -0.49781718850135803 0.8672792315483093 0.002184694167226553 
vn -0.49781718850135803 0.8672792315483093 0.002184694167226553 
vn -1.0341130485562108e-13 0.999997615814209 0.002184694167226553 
vn -1.0341130485562108e-13 0.999997615814209 0.002184694167226553 
vn -4.98030571860833e-14 0.4816005229949951 -0.8763908743858337 
vn 0.5857453942298889 0.3919506072998047 -0.7094202041625977 
vn -0.00188819516915828 0.489236980676651 -0.872148871421814 
vn 0.5894957780838013 0.39190182089805603 -0.7063339352607727 
vn 0.9511169791221619 0.1504509449005127 -0.26970529556274414 
vn 0.9511169791221619 0.1504509449005127 -0.26970529556274414 
vn 0.9511464238166809 -0.1502648890018463 0.26970529556274414 
vn 0.9511464238166809 -0.1502648890018463 0.26970529556274414 
vn 0.586138904094696 -0.39136195182800293 0.7094202041625977 
vn 0.586138904094696 -0.39136195182800293 0.7094202041625977 
vn 0.003763624932616949 -0.4815858006477356 0.8763908743858337 
vn 1.5199666070046802e-13 -0.4892406165599823 0.872148871421814 
vn -0.5882250070571899 -0.3882193863391876 0.7094202041625977 
vn -0.5882250070571899 -0.3882193863391876 0.7094202041625977 
vn -0.9511464238166809 -0.1502648890018463 0.26970529556274414 
vn -0.9511464238166809 -0.1502648890018463 0.26970529556274414 
vn -0.9516997933387756 0.14671942591667175 -0.26970529556274414 
vn -0.9516997933387756 0.14671942591667175 -0.26970529556274414 
vn -0.5857453942298889 0.3919506072998047 -0.7094202041625977 
vn -0.5857453942298889 0.3919506072998047 -0.7094202041625977 
vn -4.98030571860833e-14 0.4816005229949951 -0.8763908743858337 
vn -0.00188819516915828 0.489236980676651 -0.872148871421814 
vt 0.009399999864399433 0.7087000012397766 
vt 0.015910999849438667 0.7087000012397766 
vt 0.009399999864399433 0.9457998871803284 
vt 0.015910999849438667 0.9457998871803284 
vt 0.02238369919359684 0.7087000012397766 
vt 0.02238369919359684 0.9457998871803284 
vt 0.02900959923863411 0.7087000012397766 
vt 0.02900959923863411 0.9457998871803284 
vt 0.03548229858279228 0.7087000012397766 
vt 0.03548229858279228 0.9457998871803284 
vt 0.04199330136179924 0.7087000012397766 
vt 0.04199330136179924 0.9457998871803284 
vt 0.048580899834632874 0.7087000012397766 
vt 0.048580899834632874 0.9457998871803284 
vt 0.05509189888834953 0.7087000012397766 
vt 0.05509189888834953 0.9457998871803284 
vt 0.06160290166735649 0.7087000012397766 
vt 0.06160290166735649 0.9457998871803284 
vt 0.06819050014019012 0.7087000012397766 
vt 0.06819050014019012 0.9457998871803284 
vt 0.07470150291919708 0.7087000012397766 
vt 0.07470150291919708 0.9457998871803284 
vt 0.08121249824762344 0.7087000012397766 
vt 0.08121249824762344 0.9457998871803284 
vt 0.08768519759178162 0.7087000012397766 
vt 0.08768519759178162 0.9457998871803284 
vt 0.08780010044574738 0.9456840753555298 
vt 0.07991030067205429 0.9456840753555298 
vt 0.08768519759178162 0.7736794948577881 
vt 0.07991030067205429 0.7736794948577881 
vt 0.07209710031747818 0.9456840753555298 
vt 0.07209710031747818 0.7736794948577881 
vt 0.0642073005437851 0.7736794948577881 
vt 0.0642073005437851 0.9456840753555298 
vt 0.056394100189208984 0.9456840753555298 
vt 0.056394100189208984 0.7736794948577881 
vt 0.048580899834632874 0.9456840753555298 
vt 0.048580899834632874 0.7736794948577881 
vt 0.04069110006093979 0.7736794948577881 
vt 0.04069110006093979 0.9456840753555298 
vt 0.032916199415922165 0.7736794948577881 
vt 0.032916199415922165 0.9456840753555298 
vt 0.025103000923991203 0.7736794948577881 
vt 0.025103000923991203 0.9456840753555298 
vt 0.01721319928765297 0.9456840753555298 
vt 0.01721319928765297 0.7736794948577881 
vt 0.009399999864399433 0.9456840753555298 
vt 0.009399999864399433 0.7736794948577881 
usemtl undefined
s on 
f 1/1/1 2/2/2 3/3/3 
f 2/2/2 4/4/4 3/3/3 
f 3/3/3 4/4/4 4/4/4 
f 4/4/4 2/2/2 4/4/4 
f 4/4/4 2/2/2 2/2/2 
f 2/2/2 5/5/5 2/2/2 
f 2/2/2 5/5/5 4/4/4 
f 5/5/5 6/6/6 4/4/4 
f 4/4/4 6/6/6 6/6/6 
f 6/6/6 5/5/5 6/6/6 
f 6/6/6 5/5/5 5/5/5 
f 5/5/5 7/7/7 5/5/5 
f 5/5/5 7/7/7 6/6/6 
f 7/7/7 8/8/8 6/6/6 
f 6/6/6 8/8/8 8/8/8 
f 8/8/8 7/7/7 8/8/8 
f 8/8/8 7/7/7 7/7/7 
f 7/7/7 9/9/9 7/7/7 
f 7/7/7 9/9/9 8/8/8 
f 9/9/9 10/10/10 8/8/8 
f 8/8/8 10/10/10 10/10/10 
f 10/10/10 9/9/9 10/10/10 
f 10/10/10 9/9/9 9/9/9 
f 9/9/9 11/11/11 9/9/9 
f 9/9/9 11/11/11 10/10/10 
f 11/11/11 12/12/12 10/10/10 
f 10/10/10 12/12/12 12/12/12 
f 12/12/12 11/11/11 12/12/12 
f 12/12/12 11/11/11 11/11/11 
f 11/11/11 13/13/13 11/11/11 
f 11/11/11 13/13/13 12/12/12 
f 13/13/13 14/14/14 12/12/12 
f 12/12/12 14/14/14 14/14/14 
f 14/14/14 13/13/13 14/14/14 
f 14/14/14 13/13/13 13/13/13 
f 13/13/13 15/15/15 13/13/13 
f 13/13/13 15/15/15 14/14/14 
f 15/15/15 16/16/16 14/14/14 
f 14/14/14 16/16/16 16/16/16 
f 16/16/16 15/15/15 16/16/16 
f 16/16/16 15/15/15 15/15/15 
f 15/15/15 17/17/17 15/15/15 
f 15/15/15 17/17/17 16/16/16 
f 17/17/17 18/18/18 16/16/16 
f 16/16/16 18/18/18 18/18/18 
f 18/18/18 17/17/17 18/18/18 
f 18/18/18 17/17/17 17/17/17 
f 17/17/17 19/19/19 17/17/17 
f 17/17/17 19/19/19 18/18/18 
f 19/19/19 20/20/20 18/18/18 
f 18/18/18 20/20/20 20/20/20 
f 20/20/20 19/19/19 20/20/20 
f 20/20/20 19/19/19 19/19/19 
f 19/19/19 21/21/21 19/19/19 
f 19/19/19 21/21/21 20/20/20 
f 21/21/21 22/22/22 20/20/20 
f 20/20/20 22/22/22 22/22/22 
f 22/22/22 21/21/21 22/22/22 
f 22/22/22 21/21/21 21/21/21 
f 21/21/21 23/23/23 21/21/21 
f 21/21/21 23/23/23 22/22/22 
f 23/23/23 24/24/24 22/22/22 
f 22/22/22 24/24/24 24/24/24 
f 24/24/24 23/23/23 24/24/24 
f 24/24/24 23/23/23 23/23/23 
f 23/23/23 25/25/25 23/23/23 
f 23/23/23 25/25/25 24/24/24 
f 25/25/25 26/26/26 24/24/24 
f 24/24/24 26/26/26 26/26/26 
f 26/26/26 27/27/27 26/26/26 
f 26/26/26 27/27/27 27/27/27 
f 27/27/27 28/28/28 27/27/27 
f 27/27/27 28/28/28 29/29/29 
f 28/28/28 30/30/30 29/29/29 
f 29/29/29 30/30/30 30/30/30 
f 30/30/30 28/28/28 30/30/30 
f 30/30/30 28/28/28 28/28/28 
f 28/28/28 31/31/31 28/28/28 
f 28/28/28 31/31/31 30/30/30 
f 31/31/31 32/32/32 30/30/30 
f 30/30/30 32/32/32 32/32/32 
f 32/32/32 31/31/31 32/32/32 
f 32/32/32 31/31/31 33/33/33 
f 31/31/31 34/34/34 33/33/33 
f 33/33/33 34/34/34 35/35/35 
f 34/34/34 35/35/35 35/35/35 
f 35/35/35 35/35/35 33/33/33 
f 35/35/35 33/33/33 33/33/33 
f 33/33/33 33/33/33 33/33/33 
f 33/33/33 35/35/35 33/33/33 
f 33/33/33 35/35/35 36/36/36 
f 35/35/35 37/37/37 36/36/36 
f 36/36/36 37/37/37 38/38/38 
f 37/37/37 39/39/39 38/38/38 
f 38/38/38 39/39/39 39/39/39 
f 39/39/39 37/37/37 39/39/39 
f 39/39/39 37/37/37 37/37/37 
f 37/37/37 40/40/40 37/37/37 
f 37/37/37 40/40/40 39/39/39 
f 40/40/40 41/41/41 39/39/39 
f 39/39/39 41/41/41 41/41/41 
f 41/41/41 40/40/40 41/41/41 
f 41/41/41 40/40/40 40/40/40 
f 40/40/40 42/42/42 40/40/40 
f 40/40/40 42/42/42 41/41/41 
f 42/42/42 43/43/43 41/41/41 
f 41/41/41 43/43/43 43/43/43 
f 43/43/43 42/42/42 43/43/43 
f 43/43/43 42/42/42 42/42/42 
f 42/42/42 44/44/44 42/42/42 
f 42/42/42 44/44/44 43/43/43 
f 44/44/44 45/45/45 43/43/43 
f 43/43/43 45/45/45 46/46/46 
f 45/45/45 47/47/47 46/46/46 
f 46/46/46 47/47/47 48/48/48 
