mtllib VA_HeavyFighterCockpit1_Glass_Glass_0.mtl
o VA_HeavyFighterCockpit1_Glass_Glass_0
v -34.4008903503418 185.6909637451172 -35.10287857055664 
v 0.05884036421775818 185.6909637451172 -35.10287857055664 
v -34.4008903503418 185.6909637451172 11.79880142211914 
v 0.05884036421775818 185.6909637451172 11.79880142211914 
v 0.05884036421775818 185.64671325683594 34.75961685180664 
v 34.400962829589844 185.6909637451172 11.79880142211914 
v 61.92169952392578 185.64671325683594 34.75961685180664 
v 34.400962829589844 185.6909637451172 -35.10287857055664 
v -118.72725677490234 95.11530303955078 -19.422313690185547 
v -118.72725677490234 95.11530303955078 -69.40410614013672 
v -118.72725677490234 103.65516662597656 -5.561824798583984 
v -118.72725677490234 112.46051788330078 34.6196174621582 
v -118.72725677490234 103.65516662597656 29.999454498291016 
v -118.72725677490234 109.80563354492188 34.6196174621582 
v -118.72725677490234 104.54012298583984 -69.40410614013672 
v -118.72725677490234 112.46051788330078 -59.6037483215332 
v 61.92169952392578 185.6024627685547 49.60014724731445 
v 0.05884036421775818 185.6024627685547 49.60014724731445 
v -61.921630859375 185.6024627685547 49.60014724731445 
v -61.804019927978516 184.9829864501953 61.50056838989258 
v 61.80409240722656 184.9829864501953 61.50056838989258 
v 0.05884036421775818 184.9829864501953 61.50056838989258 
v -61.333580017089844 183.43431091308594 68.78083801269531 
v 61.333648681640625 183.43431091308594 68.78083801269531 
v 0.05884036421775818 183.43431091308594 68.78083801269531 
v -60.510311126708984 180.7351837158203 76.48110961914062 
v 60.51038360595703 180.7351837158203 76.48110961914062 
v 0.05884036421775818 180.7351837158203 76.48110961914062 
v -45.45623016357422 128.25704956054688 182.6049041748047 
v 45.456298828125 128.25704956054688 182.6049041748047 
v 0.05884036421775818 128.25704956054688 182.6049041748047 
v 118.72732543945312 95.11530303955078 -19.422313690185547 
v 118.72732543945312 103.65516662597656 -5.561824798583984 
v 118.72732543945312 95.11530303955078 -69.40410614013672 
v 118.72732543945312 112.46051788330078 34.6196174621582 
v 118.72732543945312 104.54012298583984 -69.40410614013672 
v 118.72732543945312 112.46051788330078 -59.6037483215332 
v 118.72732543945312 103.65516662597656 29.999454498291016 
v 118.72732543945312 109.80563354492188 34.6196174621582 
v 73.09465026855469 180.8236846923828 -103.98533630371094 
v 80.97451782226562 171.53160095214844 -103.84532928466797 
v 72.7418212890625 179.8502197265625 49.460147857666016 
v 120.25625610351562 120.24816131591797 51.280216217041016 
v 72.50660705566406 179.09800720214844 61.36056900024414 
v 120.25625610351562 120.24816131591797 62.620609283447266 
v 72.38899230957031 177.726318359375 67.66079711914062 
v 77.68144226074219 120.0711669921875 144.38352966308594 
v 61.80409240722656 139.67303466796875 146.34361267089844 
v -61.921630859375 185.64671325683594 34.75961685180664 
v -71.5656509399414 174.98294067382812 74.94105529785156 
v -61.804019927978516 139.67303466796875 146.34361267089844 
v -72.38892364501953 177.726318359375 67.66079711914062 
v -77.6813735961914 120.0711669921875 144.38352966308594 
v -120.25618743896484 120.24816131591797 62.620609283447266 
v -72.50653076171875 179.09800720214844 61.36056900024414 
v -120.25618743896484 120.24816131591797 51.280216217041016 
v -72.74175262451172 179.8502197265625 49.460147857666016 
v -80.97444915771484 171.53160095214844 -103.84532928466797 
v -73.0945816040039 180.8236846923828 -103.98533630371094 
v -120.3738021850586 120.15966796875 -76.82437133789062 
v 120.37387084960938 120.15966796875 -76.82437133789062 
v 71.56571960449219 174.98294067382812 74.94105529785156 
vn -2.0682311115474694e-13 -1 -2.2204500197172533e-16 
vn -2.0682311115474694e-13 -1 -2.2204500197172533e-16 
vn -2.0682311115474694e-13 -1 -2.2204500197172533e-16 
vn -2.0682311115474694e-13 -1 -2.2204500197172533e-16 
vn -2.0682311115474694e-13 -1 -2.2204500197172533e-16 
vn -2.0682311115474694e-13 -1 -2.2204500197172533e-16 
vn -0.002184688812121749 -0.9999904632568359 -0.0037839922588318586 
vn -2.0682311115474694e-13 -1 -2.2204500197172533e-16 
vn 0.999997615814209 -0.002184694167226553 -4.851004321232411e-19 
vn 0.999997615814209 -0.002184694167226553 -4.851004321232411e-19 
vn 0.999997615814209 -0.002184694167226553 -4.851004321232411e-19 
vn 0.999997615814209 -0.002184694167226553 -4.851004321232411e-19 
vn 0.999997615814209 -0.002184694167226553 -4.851004321232411e-19 
vn 0.999997615814209 -0.002184694167226553 -4.851004321232411e-19 
vn 0.999997615814209 -0.002184694167226553 -4.851004321232411e-19 
vn 0.999997615814209 -0.002184694167226553 -4.851004321232411e-19 
vn 0.001958925975486636 -0.9996563792228699 -0.02614004909992218 
vn 0.001920195179991424 -0.9995322823524475 -0.03052062913775444 
vn 0.001958925975486636 -0.9996563792228699 -0.02614004909992218 
vn -1.3487558881981453e-14 -0.991421103477478 -0.13070669770240784 
vn -1.3487558881981453e-14 -0.991421103477478 -0.13070669770240784 
vn -1.3487558881981453e-14 -0.991421103477478 -0.13070669770240784 
vn 0.003786779474467039 -0.9635298252105713 -0.26757413148880005 
vn 0.003786779474467039 -0.9635298252105713 -0.26757413148880005 
vn 0.003778246697038412 -0.962351381778717 -0.27178213000297546 
vn 0.0037778534460812807 -0.9219872951507568 -0.3872017562389374 
vn 0.0037778534460812807 -0.9219872951507568 -0.3872017562389374 
vn 0.0018909656209871173 -0.9202865362167358 -0.3912404179573059 
vn -4.5796848843586424e-14 -0.8965907096862793 -0.44286009669303894 
vn -4.5796848843586424e-14 -0.8965907096862793 -0.44286009669303894 
vn -4.5796848843586424e-14 -0.8965907096862793 -0.44286009669303894 
vn -0.999997615814209 -0.002184694167226553 2.0682212182026455e-13 
vn -0.999997615814209 -0.002184694167226553 2.0682212182026455e-13 
vn -0.999997615814209 -0.002184694167226553 2.0682212182026455e-13 
vn -0.999997615814209 -0.002184694167226553 2.0682212182026455e-13 
vn -0.999997615814209 -0.002184694167226553 2.0682212182026455e-13 
vn -0.999997615814209 0.002184694167226553 2.0682309760221979e-13 
vn -0.999997615814209 -0.002184694167226553 2.0682212182026455e-13 
vn -0.999997615814209 -0.002184694167226553 2.0682212182026455e-13 
vn -0.7640028595924377 -0.6452018022537231 -0.0037798509001731873 
vn -0.7751622796058655 -0.6317508816719055 -0.0037756022065877914 
vn -0.7802144289016724 -0.6249527335166931 -0.02644742839038372 
vn -0.7806534171104431 -0.6249527335166931 -0.003778912592679262 
vn -0.7749531269073486 -0.6249527335166931 -0.09424275904893875 
vn -0.7686005234718323 -0.6181069612503052 -0.1649152785539627 
vn -0.7694501280784607 -0.5867242813110352 -0.2523907721042633 
vn -0.733799397945404 -0.5688942670822144 -0.3713458478450775 
vn -0.7392218708992004 -0.5616858005523682 -0.3715643584728241 
vn -0.002184688812121749 -0.9999904632568359 -0.0037839922588318586 
vn 0.9641121625900269 0.26549527049064636 5.89518983246783e-17 
vn 0.7392218708992004 -0.5616858005523682 -0.3715643584728241 
vn 0.7694501280784607 -0.5867242813110352 -0.2523907721042633 
vn 0.733799397945404 -0.5688942670822144 -0.3713458478450775 
vn 0.7686005234718323 -0.6181069612503052 -0.1649152785539627 
vn 0.7744878530502319 -0.6249527335166931 -0.0979929268360138 
vn 0.7806259989738464 -0.6249527335166931 -0.0075577362440526485 
vn 0.7800772786140442 -0.6249527335166931 -0.030223863199353218 
vn 0.7751347422599792 -0.6317508816719055 -0.00755111500620842 
vn 0.7639747858047485 -0.6452018022537231 -0.0075596091337502 
vn 0.7941284775733948 -0.607749879360199 -1.3494782008378724e-16 
vn -0.7941284775733948 -0.607749879360199 1.641091776360959e-13 
vn -0.9641047716140747 0.26549527049064636 -0.0037719053216278553 
vt -0.0012518300209194422 0.559071958065033 
vt -0.0012518300209194422 0.7157773971557617 
vt 0.21242734789848328 0.559071958065033 
vt 0.21242734789848328 0.7157773971557617 
vt 0.3170715868473053 0.7157773971557617 
vt 0.21242734789848328 0.8724828958511353 
vt 0.3170715868473053 0.9977501034736633 
vt -0.0012518300209194422 0.8724828958511353 
vt 0.27950698137283325 0.003501970088109374 
vt 0.0063098762184381485 0.003501970088109374 
vt 0.35500210523605347 0.05023442581295967 
vt 0.575023353099823 0.09830209612846375 
vt 0.5492891669273376 0.05023442581295967 
vt 0.575023353099823 0.08373613655567169 
vt 0.0063098762184381485 0.05508974567055702 
vt 0.06021752208471298 0.09830209612846375 
vt 0.3847610652446747 0.9977501034736633 
vt 0.3847610652446747 0.7157773971557617 
vt 0.3847610652446747 0.4338046908378601 
vt 0.4387906789779663 0.4345329999923706 
vt 0.4387906789779663 0.9970218539237976 
vt 0.4387906789779663 0.7157773971557617 
vt 0.4720865786075592 0.4367178976535797 
vt 0.4720865786075592 0.9948369264602661 
vt 0.4720865786075592 0.7157773971557617 
vt 0.5067240595817566 0.4403593838214874 
vt 0.5067240595817566 0.9911954402923584 
vt 0.5067240595817566 0.7157773971557617 
vt 0.9900634288787842 0.5089407563209534 
vt 0.9900634288787842 0.9224926829338074 
vt 0.9900634288787842 0.7157773971557617 
vt 0.27950698137283325 0.003501970088109374 
vt 0.35500210523605347 0.05023442581295967 
vt 0.0063098762184381485 0.003501970088109374 
vt 0.575023353099823 0.09830209612846375 
vt 0.0063098762184381485 0.05508974567055702 
vt 0.06021752208471298 0.09830209612846375 
vt 0.5492891669273376 0.05023442581295967 
vt 0.575023353099823 0.08373613655567169 
vt -0.0012518300209194422 0.41632553935050964 
vt -0.0008859409717842937 0.36765095591545105 
vt 0.6110024452209473 0.41183438897132874 
vt 0.6173444986343384 0.10728443413972855 
vt 0.6585680246353149 0.40722182393074036 
vt 0.6623488664627075 0.10449262708425522 
vt 0.6835704445838928 0.4030947983264923 
vt 0.9896975159645081 0.20815370976924896 
vt 0.9977471232414246 0.3086588382720947 
vt 0.3170715868473053 0.4338046908378601 
vt 0.7125976085662842 0.39617598056793213 
vt 0.9977471232414246 0.3086588382720947 
vt 0.6835704445838928 0.4030947983264923 
vt 0.9896975159645081 0.20815370976924896 
vt 0.6623488664627075 0.10449262708425522 
vt 0.6585680246353149 0.40722182393074036 
vt 0.6173444986343384 0.10728443413972855 
vt 0.6110024452209473 0.41183438897132874 
vt -0.0008859409717842937 0.36765095591545105 
vt -0.0012518300209194422 0.41632553935050964 
vt 0.10570972412824631 0.10898379981517792 
vt 0.10570972412824631 0.10898379981517792 
vt 0.7125976085662842 0.39617598056793213 
usemtl VA_HeavyFighterCockpit1_Glass_Glass_0
s on 
f 1/1/1 2/2/2 3/3/3 
f 2/2/2 4/4/4 3/3/3 
f 3/3/3 4/4/4 5/5/5 
f 4/4/4 6/6/6 5/5/5 
f 5/5/5 6/6/6 7/7/7 
f 6/6/6 7/7/7 7/7/7 
f 7/7/7 7/7/7 4/4/4 
f 7/7/7 4/4/4 4/4/4 
f 4/4/4 4/4/4 4/4/4 
f 4/4/4 2/2/2 4/4/4 
f 4/4/4 2/2/2 6/6/6 
f 2/2/2 8/8/8 6/6/6 
f 6/6/6 8/8/8 8/8/8 
f 8/8/8 9/9/9 8/8/8 
f 8/8/8 9/9/9 9/9/9 
f 9/9/9 10/10/10 9/9/9 
f 9/9/9 10/10/10 11/11/11 
f 10/10/10 12/12/12 11/11/11 
f 11/11/11 12/12/12 13/13/13 
f 12/12/12 14/14/14 13/13/13 
f 13/13/13 14/14/14 14/14/14 
f 14/14/14 10/10/10 14/14/14 
f 14/14/14 10/10/10 10/10/10 
f 10/10/10 15/15/15 10/10/10 
f 10/10/10 15/15/15 12/12/12 
f 15/15/15 16/16/16 12/12/12 
f 12/12/12 16/16/16 16/16/16 
f 16/16/16 7/7/7 16/16/16 
f 16/16/16 7/7/7 7/7/7 
f 7/7/7 17/17/17 7/7/7 
f 7/7/7 17/17/17 5/5/5 
f 17/17/17 18/18/18 5/5/5 
f 5/5/5 18/18/18 19/19/19 
f 18/18/18 20/20/20 19/19/19 
f 19/19/19 20/20/20 20/20/20 
f 20/20/20 17/17/17 20/20/20 
f 20/20/20 17/17/17 17/17/17 
f 17/17/17 21/21/21 17/17/17 
f 17/17/17 21/21/21 18/18/18 
f 21/21/21 22/22/22 18/18/18 
f 18/18/18 22/22/22 20/20/20 
f 22/22/22 23/23/23 20/20/20 
f 20/20/20 23/23/23 23/23/23 
f 23/23/23 21/21/21 23/23/23 
f 23/23/23 21/21/21 21/21/21 
f 21/21/21 24/24/24 21/21/21 
f 21/21/21 24/24/24 22/22/22 
f 24/24/24 25/25/25 22/22/22 
f 22/22/22 25/25/25 23/23/23 
f 25/25/25 26/26/26 23/23/23 
f 23/23/23 26/26/26 26/26/26 
f 26/26/26 24/24/24 26/26/26 
f 26/26/26 24/24/24 24/24/24 
f 24/24/24 27/27/27 24/24/24 
f 24/24/24 27/27/27 25/25/25 
f 27/27/27 28/28/28 25/25/25 
f 25/25/25 28/28/28 26/26/26 
f 28/28/28 29/29/29 26/26/26 
f 26/26/26 29/29/29 29/29/29 
f 29/29/29 27/27/27 29/29/29 
f 29/29/29 27/27/27 27/27/27 
f 27/27/27 30/30/30 27/27/27 
f 27/27/27 30/30/30 28/28/28 
f 30/30/30 31/31/31 28/28/28 
f 28/28/28 31/31/31 29/29/29 
f 31/31/31 29/29/29 29/29/29 
f 29/29/29 29/29/29 32/32/32 
f 29/29/29 32/32/32 32/32/32 
f 32/32/32 32/32/32 32/32/32 
f 32/32/32 33/33/33 32/32/32 
f 32/32/32 33/33/33 34/34/34 
f 33/33/33 35/35/35 34/34/34 
f 34/34/34 35/35/35 36/36/36 
f 35/35/35 37/37/37 36/36/36 
f 36/36/36 37/37/37 37/37/37 
f 37/37/37 33/33/33 37/37/37 
f 37/37/37 33/33/33 33/33/33 
f 33/33/33 38/38/38 33/33/33 
f 33/33/33 38/38/38 35/35/35 
f 38/38/38 39/39/39 35/35/35 
f 35/35/35 39/39/39 39/39/39 
f 39/39/39 40/40/40 39/39/39 
f 39/39/39 40/40/40 40/40/40 
f 40/40/40 41/41/41 40/40/40 
f 40/40/40 41/41/41 42/42/42 
f 41/41/41 43/43/43 42/42/42 
f 42/42/42 43/43/43 44/44/44 
f 43/43/43 45/45/45 44/44/44 
f 44/44/44 45/45/45 46/46/46 
f 45/45/45 47/47/47 46/46/46 
f 46/46/46 47/47/47 48/48/48 
f 47/47/47 48/48/48 48/48/48 
f 48/48/48 48/48/48 19/19/19 
f 48/48/48 19/19/19 19/19/19 
f 19/19/19 19/19/19 19/19/19 
f 19/19/19 49/49/49 19/19/19 
f 19/19/19 49/49/49 5/5/5 
f 49/49/49 3/3/3 5/5/5 
f 5/5/5 3/3/3 3/3/3 
f 3/3/3 50/50/50 3/3/3 
f 3/3/3 50/50/50 50/50/50 
f 50/50/50 51/51/51 50/50/50 
f 50/50/50 51/51/51 52/52/52 
f 51/51/51 53/53/53 52/52/52 
f 52/52/52 53/53/53 54/54/54 
f 53/53/53 54/54/54 54/54/54 
f 54/54/54 54/54/54 52/52/52 
f 54/54/54 52/52/52 52/52/52 
f 52/52/52 52/52/52 52/52/52 
f 52/52/52 54/54/54 52/52/52 
f 52/52/52 54/54/54 55/55/55 
f 54/54/54 56/56/56 55/55/55 
f 55/55/55 56/56/56 57/57/57 
f 56/56/56 58/58/58 57/57/57 
f 57/57/57 58/58/58 59/59/59 
f 58/58/58 56/56/56 60/60/60 
f 41/41/41 61/61/61 43/43/43 
f 48/48/48 62/62/62 46/46/46 
