mtllib ladder_side_f35_ext_1_0.mtl
o ladder_side_f35_ext_1_0
v -3.825000047683716 -9.74487018585205 0.10104209929704666 
v 3.8249974250793457 -9.74487018585205 0.10104209929704666 
v -3.825000047683716 -9.74487018585205 1.16655433177948 
v 3.8249974250793457 -9.74487018585205 1.16655433177948 
v 3.8249974250793457 0.9498381018638611 -1.1665500402450562 
v 3.8249974250793457 -1.5764708518981934 0.10104209929704666 
v -3.825000047683716 0.9498381018638611 -1.1665500402450562 
v -3.825000047683716 -1.5764708518981934 0.10104209929704666 
v 3.8249974250793457 -9.74487018585205 0.10104209929704666 
v -3.825000047683716 -9.74487018585205 0.10104209929704666 
v 3.8249974250793457 -9.74487018585205 1.16655433177948 
v 3.8249974250793457 -9.74487018585205 0.10104209929704666 
v 3.8249974250793457 -1.5764708518981934 1.16655433177948 
v 3.8249974250793457 -1.5764708518981934 0.10104209929704666 
v 3.8249974250793457 0.9498381018638611 1.16655433177948 
v 3.8249974250793457 0.9498381018638611 -1.1665500402450562 
v 3.8249974250793457 -9.74487018585205 1.16655433177948 
v 3.8249974250793457 -1.5764708518981934 1.16655433177948 
v -3.825000047683716 -9.74487018585205 1.16655433177948 
v -3.825000047683716 -1.5764708518981934 1.16655433177948 
v -3.825000047683716 0.9498381018638611 1.16655433177948 
v 3.8249974250793457 0.9498381018638611 1.16655433177948 
v 3.8249974250793457 0.9498381018638611 1.16655433177948 
v 3.8249974250793457 0.9498381018638611 -1.1665500402450562 
v -3.825000047683716 0.9498381018638611 1.16655433177948 
v -3.825000047683716 0.9498381018638611 -1.1665500402450562 
v -3.825000047683716 -9.74487018585205 0.10104209929704666 
v -3.825000047683716 -9.74487018585205 1.16655433177948 
v -3.825000047683716 -1.5764708518981934 0.10104209929704666 
v -3.825000047683716 -1.5764708518981934 1.16655433177948 
v -3.825000047683716 0.9498381018638611 -1.1665500402450562 
v -3.825000047683716 0.9498381018638611 1.16655433177948 
vn 3.097898456858039e-13 -0.999997615814209 0.002184694167226553 
vn 3.097898456858039e-13 -0.999997615814209 0.002184694167226553 
vn 3.097898456858039e-13 -0.999997615814209 0.002184694167226553 
vn 3.097898456858039e-13 -0.999997615814209 0.002184694167226553 
vn 0.0037779659032821655 -0.45455867052078247 -0.8907088041305542 
vn 0.0037853566464036703 -0.23373335599899292 -0.9722933769226074 
vn 0.0037779659032821655 -0.45455867052078247 -0.8907088041305542 
vn 0.0037853566464036703 -0.23373335599899292 -0.9722933769226074 
vn -2.0682311115474694e-13 0 -1 
vn -2.0682311115474694e-13 0 -1 
vn 0.999997615814209 0 0.002184694167226553 
vn 0.999997615814209 0 0.002184694167226553 
vn 0.999997615814209 0 0.002184694167226553 
vn 0.999997615814209 0 0.002184694167226553 
vn 0.999997615814209 0 0.002184694167226553 
vn 0.999997615814209 0 0.002184694167226553 
vn 0 0 1 
vn 0 0 1 
vn 0 0 1 
vn 0 0 1 
vn 0 0 1 
vn 0 0 1 
vn -1.0339945994688668e-13 0.9998830556869507 -0.0152922747656703 
vn -1.0339945994688668e-13 0.9998830556869507 -0.0152922747656703 
vn -1.0339945994688668e-13 0.9998830556869507 -0.0152922747656703 
vn -1.0339945994688668e-13 0.9998830556869507 -0.0152922747656703 
vn -0.999997615814209 -2.0682260971124217e-13 0.002184694167226553 
vn -0.999997615814209 -2.0682260971124217e-13 0.002184694167226553 
vn -0.999997615814209 -2.0682260971124217e-13 0.002184694167226553 
vn -0.999997615814209 -2.0682260971124217e-13 0.002184694167226553 
vn -0.999997615814209 -2.0682260971124217e-13 0.002184694167226553 
vn -0.999997615814209 -2.0682260971124217e-13 0.002184694167226553 
vt 0.015220346860587597 0.19351018965244293 
vt 0.015220346860587597 0.1872137039899826 
vt 0.015984730795025826 0.19351018965244293 
vt 0.015984730795025826 0.1872137039899826 
vt 0.003700000001117587 0.1872137039899826 
vt 0.00599314970895648 0.1872137039899826 
vt 0.003700000001117587 0.19351018965244293 
vt 0.00599314970895648 0.19351018965244293 
vt 0.01270880177617073 0.1872137039899826 
vt 0.01270880177617073 0.19351018965244293 
vt 0.018823867663741112 0.18500293791294098 
vt 0.018823867663741112 0.18419139087200165 
vt 0.025484921410679817 0.18500293791294098 
vt 0.025484921410679817 0.18419139087200165 
vt 0.027614274993538857 0.18500293791294098 
vt 0.027614274993538857 0.18310000002384186 
vt 0.018823867663741112 0.1872137039899826 
vt 0.025484921410679817 0.1872137039899826 
vt 0.018823867663741112 0.19351018965244293 
vt 0.025484921410679817 0.19351018965244293 
vt 0.027614274993538857 0.19351018965244293 
vt 0.027614274993538857 0.1872137039899826 
vt 0.029579831287264824 0.1872137039899826 
vt 0.0315999872982502 0.1872137039899826 
vt 0.029579831287264824 0.19351018965244293 
vt 0.0315999872982502 0.19351018965244293 
vt 0.018823867663741112 0.19639259576797485 
vt 0.018823867663741112 0.19549709558486938 
vt 0.025484921410679817 0.19639259576797485 
vt 0.025484921410679817 0.19549709558486938 
vt 0.027614274993538857 0.1974000334739685 
vt 0.027614274993538857 0.19549709558486938 
usemtl ladder_side_f35_ext_1_0
s on 
f 1/1/1 2/2/2 3/3/3 
f 2/2/2 4/4/4 3/3/3 
f 3/3/3 4/4/4 4/4/4 
f 4/4/4 5/5/5 4/4/4 
f 4/4/4 5/5/5 5/5/5 
f 5/5/5 6/6/6 5/5/5 
f 5/5/5 6/6/6 7/7/7 
f 6/6/6 8/8/8 7/7/7 
f 7/7/7 8/8/8 8/8/8 
f 8/8/8 6/6/6 8/8/8 
f 8/8/8 6/6/6 6/6/6 
f 6/6/6 9/9/9 6/6/6 
f 6/6/6 9/9/9 8/8/8 
f 9/9/9 10/10/10 8/8/8 
f 8/8/8 10/10/10 10/10/10 
f 10/10/10 11/11/11 10/10/10 
f 10/10/10 11/11/11 11/11/11 
f 11/11/11 12/12/12 11/11/11 
f 11/11/11 12/12/12 13/13/13 
f 12/12/12 14/14/14 13/13/13 
f 13/13/13 14/14/14 15/15/15 
f 14/14/14 16/16/16 15/15/15 
f 15/15/15 16/16/16 16/16/16 
f 16/16/16 17/17/17 16/16/16 
f 16/16/16 17/17/17 17/17/17 
f 17/17/17 18/18/18 17/17/17 
f 17/17/17 18/18/18 19/19/19 
f 18/18/18 20/20/20 19/19/19 
f 19/19/19 20/20/20 20/20/20 
f 20/20/20 18/18/18 20/20/20 
f 20/20/20 18/18/18 21/21/21 
f 18/18/18 22/22/22 21/21/21 
f 21/21/21 22/22/22 22/22/22 
f 22/22/22 23/23/23 22/22/22 
f 22/22/22 23/23/23 23/23/23 
f 23/23/23 24/24/24 23/23/23 
f 23/23/23 24/24/24 25/25/25 
f 24/24/24 26/26/26 25/25/25 
f 25/25/25 26/26/26 26/26/26 
f 26/26/26 27/27/27 26/26/26 
f 26/26/26 27/27/27 27/27/27 
f 27/27/27 28/28/28 27/27/27 
f 27/27/27 28/28/28 29/29/29 
f 28/28/28 30/30/30 29/29/29 
f 29/29/29 30/30/30 31/31/31 
f 30/30/30 32/32/32 31/31/31 
